/* XPM */
static char *hero151649366479[] = {
/* columns rows colors chars-per-pixel */
"64 64 6 1 ",
"  c None",
". c black",
"X c #B21030",
"o c #C37100",
"O c #DB4161",
"+ c #FFA200",
/* pixels */
"                                                                ",
"                                                                ",
"                                                                ",
"                                                                ",
"                    ++++++++                                    ",
"                    ++++++++                                    ",
"                    ++++++++                                    ",
"                    ++++++++                                    ",
"                    ....oooo                                    ",
"                    ....oooo                                    ",
"                    ....oooo                                    ",
"                    ....oooo                                    ",
"                ....XXXXXXXXXXXXXXXXXXXX....                    ",
"                ....XXXXXXXXXXXXXXXXXXXX....                    ",
"                ....XXXXXXXXXXXXXXXXXXXX....                    ",
"                ....XXXXXXXXXXXXXXXXXXXX....                    ",
"            ....XXXXXXXXOOOOOOOOOOOOOOOOXXXX....                ",
"            ....XXXXXXXXOOOOOOOOOOOOOOOOXXXX....                ",
"            ....XXXXXXXXOOOOOOOOOOOOOOOOXXXX....                ",
"            ....XXXXXXXXOOOOOOOOOOOOOOOOXXXX....                ",
"        ....XXXXXXXXXXXXXXXXOOOOOOOOXXXXXXXX........            ",
"        ....XXXXXXXXXXXXXXXXOOOOOOOOXXXXXXXX........            ",
"        ....XXXXXXXXXXXXXXXXOOOOOOOOXXXXXXXX........            ",
"        ....XXXXXXXXXXXXXXXXOOOOOOOOXXXXXXXX........            ",
"        ....XXXXXXXXXXXXXXXXXXXXXXXXOOOOOOOOXXXXOOOO....        ",
"        ....XXXXXXXXXXXXXXXXXXXXXXXXOOOOOOOOXXXXOOOO....        ",
"        ....XXXXXXXXXXXXXXXXXXXXXXXXOOOOOOOOXXXXOOOO....        ",
"        ....XXXXXXXXXXXXXXXXXXXXXXXXOOOOOOOOXXXXOOOO....        ",
"        ....XXXXXXXXXXXXXXXXXXXXXXXX....XXXX....XXXX....        ",
"        ....XXXXXXXXXXXXXXXXXXXXXXXX....XXXX....XXXX....        ",
"        ....XXXXXXXXXXXXXXXXXXXXXXXX....XXXX....XXXX....        ",
"        ....XXXXXXXXXXXXXXXXXXXXXXXX....XXXX....XXXX....        ",
"        ....XXXXXXXXXXXXXXXXXXXXXXXX....XXXX....XXXX....        ",
"        ....XXXXXXXXXXXXXXXXXXXXXXXX....XXXX....XXXX....        ",
"        ....XXXXXXXXXXXXXXXXXXXXXXXX....XXXX....XXXX....        ",
"        ....XXXXXXXXXXXXXXXXXXXXXXXX....XXXX....XXXX....        ",
"        ........XXXXXXXXXXXXXXXXXXXXXXXX............            ",
"        ........XXXXXXXXXXXXXXXXXXXXXXXX............            ",
"        ........XXXXXXXXXXXXXXXXXXXXXXXX............            ",
"        ........XXXXXXXXXXXXXXXXXXXXXXXX............            ",
"        ....oooo........................++++oooo....            ",
"        ....oooo........................++++oooo....            ",
"        ....oooo........................++++oooo....            ",
"        ....oooo........................++++oooo....            ",
"            ....XXXX............XXXX....++++........            ",
"            ....XXXX............XXXX....++++........            ",
"            ....XXXX............XXXX....++++........            ",
"            ....XXXX............XXXX....++++........            ",
"            ....XXXXXXXXOOOOXXXX........oooooooo....            ",
"            ....XXXXXXXXOOOOXXXX........oooooooo....            ",
"            ....XXXXXXXXOOOOXXXX........oooooooo....            ",
"            ....XXXXXXXXOOOOXXXX........oooooooo....            ",
"        ....XXXXXXXXOOOOOOOOXXXX........oooooooo........        ",
"        ....XXXXXXXXOOOOOOOOXXXX........oooooooo........        ",
"        ....XXXXXXXXOOOOOOOOXXXX........oooooooo........        ",
"        ....XXXXXXXXOOOOOOOOXXXX........oooooooo........        ",
"        ....XXXXXXXXOOOOXXXXXXXX............XXXXOOOO....        ",
"        ....XXXXXXXXOOOOXXXXXXXX............XXXXOOOO....        ",
"        ....XXXXXXXXOOOOXXXXXXXX............XXXXOOOO....        ",
"        ....XXXXXXXXOOOOXXXXXXXX............XXXXOOOO....        ",
"            XXXXXXXXXXXXXXXX....    ................            ",
"            XXXXXXXXXXXXXXXX....    ................            ",
"            XXXXXXXXXXXXXXXX....    ................            ",
"            XXXXXXXXXXXXXXXX....    ................            "
};
