/* XPM */
static char *hero111649366479[] = {
/* columns rows colors chars-per-pixel */
"64 64 6 1 ",
"  c None",
". c black",
"X c #B21030",
"o c #C37100",
"O c #DB4161",
"+ c #FFA200",
/* pixels */
"                                                                ",
"                                                                ",
"                                                                ",
"                                                                ",
"                                ++++++++                        ",
"                                ++++++++                        ",
"                                ++++++++                        ",
"                                ++++++++                        ",
"                                oooo....                        ",
"                                oooo....                        ",
"                                oooo....                        ",
"                                oooo....                        ",
"                ....OOOOOOOOOOOOXXXXXXXXXXXX....                ",
"                ....OOOOOOOOOOOOXXXXXXXXXXXX....                ",
"                ....OOOOOOOOOOOOXXXXXXXXXXXX....                ",
"                ....OOOOOOOOOOOOXXXXXXXXXXXX....                ",
"            ....XXXXXXXXXXXXXXXXXXXXXXXXXXXXXXXX....            ",
"            ....XXXXXXXXXXXXXXXXXXXXXXXXXXXXXXXX....            ",
"            ....XXXXXXXXXXXXXXXXXXXXXXXXXXXXXXXX....            ",
"            ....XXXXXXXXXXXXXXXXXXXXXXXXXXXXXXXX....            ",
"            ....................XXXXXXXXXXXXXXXXXXXX....        ",
"            ....................XXXXXXXXXXXXXXXXXXXX....        ",
"            ....................XXXXXXXXXXXXXXXXXXXX....        ",
"            ....................XXXXXXXXXXXXXXXXXXXX....        ",
"            ....XXXXXXXXXXXX....XXXXXXXXOOOOOOOOXXXX....        ",
"            ....XXXXXXXXXXXX....XXXXXXXXOOOOOOOOXXXX....        ",
"            ....XXXXXXXXXXXX....XXXXXXXXOOOOOOOOXXXX....        ",
"            ....XXXXXXXXXXXX....XXXXXXXXOOOOOOOOXXXX....        ",
"            XXXX....XXXX....XXXX........OOOO....XXXX....        ",
"            XXXX....XXXX....XXXX........OOOO....XXXX....        ",
"            XXXX....XXXX....XXXX........OOOO....XXXX....        ",
"            XXXX....XXXX....XXXX........OOOO....XXXX....        ",
"            XXXX....XXXX....XXXXXXXX....XXXXXXXX........        ",
"            XXXX....XXXX....XXXXXXXX....XXXXXXXX........        ",
"            XXXX....XXXX....XXXXXXXX....XXXXXXXX........        ",
"            XXXX....XXXX....XXXXXXXX....XXXXXXXX........        ",
"            ....oooo........XXXX....................            ",
"            ....oooo........XXXX....................            ",
"            ....oooo........XXXX....................            ",
"            ....oooo........XXXX....................            ",
"            ....oooo............oooo....XXXXXXXX....            ",
"            ....oooo............oooo....XXXXXXXX....            ",
"            ....oooo............oooo....XXXXXXXX....            ",
"            ....oooo............oooo....XXXXXXXX....            ",
"            ....XXXX++++++++oooooooo....XXXXXXXX....            ",
"            ....XXXX++++++++oooooooo....XXXXXXXX....            ",
"            ....XXXX++++++++oooooooo....XXXXXXXX....            ",
"            ....XXXX++++++++oooooooo....XXXXXXXX....            ",
"                ....++++oooooooo............XXXXXXXX....        ",
"                ....++++oooooooo............XXXXXXXX....        ",
"                ....++++oooooooo............XXXXXXXX....        ",
"                ....++++oooooooo............XXXXXXXX....        ",
"            ........XXXXoooooooo................XXXX....        ",
"            ........XXXXoooooooo................XXXX....        ",
"            ........XXXXoooooooo................XXXX....        ",
"            ........XXXXoooooooo................XXXX....        ",
"            ....XXXXXXXXXXXX........XXXXXXXX....XXXX....        ",
"            ....XXXXXXXXXXXX........XXXXXXXX....XXXX....        ",
"            ....XXXXXXXXXXXX........XXXXXXXX....XXXX....        ",
"            ....XXXXXXXXXXXX........XXXXXXXX....XXXX....        ",
"                                                                ",
"                                                                ",
"                                                                ",
"                                                                "
};
