/* XPM */
static char *hero21649366478[] = {
/* columns rows colors chars-per-pixel */
"64 64 6 1 ",
"  c None",
". c black",
"X c #B21030",
"o c #C37100",
"O c #DB4161",
"+ c #FFA200",
/* pixels */
"                            ++++++++                            ",
"                            ++++++++                            ",
"                            ++++++++                            ",
"                            ++++++++                            ",
"                            oooo....                            ",
"                            oooo....                            ",
"                            oooo....                            ",
"                            oooo....                            ",
"                    ....XXXXXXXXXXXXXXXX....                    ",
"                    ....XXXXXXXXXXXXXXXX....                    ",
"                    ....XXXXXXXXXXXXXXXX....                    ",
"                    ....XXXXXXXXXXXXXXXX....                    ",
"                ....XXXXOOOOOOOOOOOOOOOOXXXX....                ",
"                ....XXXXOOOOOOOOOOOOOOOOXXXX....                ",
"                ....XXXXOOOOOOOOOOOOOOOOXXXX....                ",
"                ....XXXXOOOOOOOOOOOOOOOOXXXX....                ",
"            ....XXXXXXXXOOOOOOOOOOOOOOOOXXXXXXXX....            ",
"            ....XXXXXXXXOOOOOOOOOOOOOOOOXXXXXXXX....            ",
"            ....XXXXXXXXOOOOOOOOOOOOOOOOXXXXXXXX....            ",
"            ....XXXXXXXXOOOOOOOOOOOOOOOOXXXXXXXX....            ",
"            ....XXXXXXXXXXXXOOOOOOOOXXXXXXXXXXXX....            ",
"            ....XXXXXXXXXXXXOOOOOOOOXXXXXXXXXXXX....            ",
"            ....XXXXXXXXXXXXOOOOOOOOXXXXXXXXXXXX....            ",
"            ....XXXXXXXXXXXXOOOOOOOOXXXXXXXXXXXX....            ",
"            ....XXXXXXXXXXXXXXXXXXXXXXXXXXXXXXXX....            ",
"            ....XXXXXXXXXXXXXXXXXXXXXXXXXXXXXXXX....            ",
"            ....XXXXXXXXXXXXXXXXXXXXXXXXXXXXXXXX....            ",
"            ....XXXXXXXXXXXXXXXXXXXXXXXXXXXXXXXX....            ",
"            ........XXXXXXXXXXXXXXXXXXXXXXXX........            ",
"            ........XXXXXXXXXXXXXXXXXXXXXXXX........            ",
"            ........XXXXXXXXXXXXXXXXXXXXXXXX........            ",
"            ........XXXXXXXXXXXXXXXXXXXXXXXX........            ",
"            ............XXXXXXXXXXXXXXXXXXXX........            ",
"            ............XXXXXXXXXXXXXXXXXXXX........            ",
"            ............XXXXXXXXXXXXXXXXXXXX........            ",
"            ............XXXXXXXXXXXXXXXXXXXX........            ",
"            ........................................            ",
"            ........................................            ",
"            ........................................            ",
"            ........................................            ",
"        ....oooo....XXXX................XXXX....oooo....        ",
"        ....oooo....XXXX................XXXX....oooo....        ",
"        ....oooo....XXXX................XXXX....oooo....        ",
"        ....oooo....XXXX................XXXX....oooo....        ",
"    ....oooooooo........XXXXOOOOXXXXXXXX........oooooooo....    ",
"    ....oooooooo........XXXXOOOOXXXXXXXX........oooooooo....    ",
"    ....oooooooo........XXXXOOOOXXXXXXXX........oooooooo....    ",
"    ....oooooooo........XXXXOOOOXXXXXXXX........oooooooo....    ",
"    ....oooo............XXXXOOOOXXXXXXXX............oooo....    ",
"    ....oooo............XXXXOOOOXXXXXXXX............oooo....    ",
"    ....oooo............XXXXOOOOXXXXXXXX............oooo....    ",
"    ....oooo............XXXXOOOOXXXXXXXX............oooo....    ",
"        ............XXXXOOOOXXXXXXXXXXXXXXXX............        ",
"        ............XXXXOOOOXXXXXXXXXXXXXXXX............        ",
"        ............XXXXOOOOXXXXXXXXXXXXXXXX............        ",
"        ............XXXXOOOOXXXXXXXXXXXXXXXX............        ",
"                ....XXXXOOOOXXXXXXXXXXXXXXXX....                ",
"                ....XXXXOOOOXXXXXXXXXXXXXXXX....                ",
"                ....XXXXOOOOXXXXXXXXXXXXXXXX....                ",
"                ....XXXXOOOOXXXXXXXXXXXXXXXX....                ",
"                                                                ",
"                                                                ",
"                                                                ",
"                                                                "
};
