/* XPM */
static char *hero41649366478[] = {
/* columns rows colors chars-per-pixel */
"64 64 6 1 ",
"  c None",
". c black",
"X c #B21030",
"o c #C37100",
"O c #DB4161",
"+ c #FFA200",
/* pixels */
"                                ++++++++                        ",
"                                ++++++++                        ",
"                                ++++++++                        ",
"                                ++++++++                        ",
"                                oooo....                        ",
"                                oooo....                        ",
"                                oooo....                        ",
"                                oooo....                        ",
"                    ....XXXXXXXXXXXXXXXX....                    ",
"                    ....XXXXXXXXXXXXXXXX....                    ",
"                    ....XXXXXXXXXXXXXXXX....                    ",
"                    ....XXXXXXXXXXXXXXXX....                    ",
"                ....XXXXOOOOOOOOOOOOOOOOXXXX....                ",
"                ....XXXXOOOOOOOOOOOOOOOOXXXX....                ",
"                ....XXXXOOOOOOOOOOOOOOOOXXXX....                ",
"                ....XXXXOOOOOOOOOOOOOOOOXXXX....                ",
"            ....XXXX........................XXXX....            ",
"            ....XXXX........................XXXX....            ",
"            ....XXXX........................XXXX....            ",
"            ....XXXX........................XXXX....            ",
"            ....OOOOOOOOOOOOOOOOOOOOOOOOOOOO........            ",
"            ....OOOOOOOOOOOOOOOOOOOOOOOOOOOO........            ",
"            ....OOOOOOOOOOOOOOOOOOOOOOOOOOOO........            ",
"            ....OOOOOOOOOOOOOOOOOOOOOOOOOOOO........            ",
"        ....OOOO....OOOO........OOOO........OOOO....            ",
"        ....OOOO....OOOO........OOOO........OOOO....            ",
"        ....OOOO....OOOO........OOOO........OOOO....            ",
"        ....OOOO....OOOO........OOOO........OOOO....            ",
"        ....XXXX....XXXX........XXXX........XXXX....            ",
"        ....XXXX....XXXX........XXXX........XXXX....            ",
"        ....XXXX....XXXX........XXXX........XXXX....            ",
"        ....XXXX....XXXX........XXXX........XXXX....            ",
"        ....XXXX....++++........++++........XXXX....            ",
"        ....XXXX....++++........++++........XXXX....            ",
"        ....XXXX....++++........++++........XXXX....            ",
"        ....XXXX....++++........++++........XXXX....            ",
"            ........++++........++++................            ",
"            ........++++........++++................            ",
"            ........++++........++++................            ",
"            ........++++........++++................            ",
"        ........XXXX....................XXXX....oooo....        ",
"        ........XXXX....................XXXX....oooo....        ",
"        ........XXXX....................XXXX....oooo....        ",
"        ........XXXX....................XXXX....oooo....        ",
"        ....oooo++++++++XXXXOOOOOOOOXXXX........oooo....        ",
"        ....oooo++++++++XXXXOOOOOOOOXXXX........oooo....        ",
"        ....oooo++++++++XXXXOOOOOOOOXXXX........oooo....        ",
"        ....oooo++++++++XXXXOOOOOOOOXXXX........oooo....        ",
"        ........oooo++++XXXXXXXXXXXX....................        ",
"        ........oooo++++XXXXXXXXXXXX....................        ",
"        ........oooo++++XXXXXXXXXXXX....................        ",
"        ........oooo++++XXXXXXXXXXXX....................        ",
"            ........XXXX................XXXX....                ",
"            ........XXXX................XXXX....                ",
"            ........XXXX................XXXX....                ",
"            ........XXXX................XXXX....                ",
"                ............        OOOOOOOOXXXX                ",
"                ............        OOOOOOOOXXXX                ",
"                ............        OOOOOOOOXXXX                ",
"                ............        OOOOOOOOXXXX                ",
"                                    ............                ",
"                                    ............                ",
"                                    ............                ",
"                                    ............                "
};
