/* XPM */
static char *hero81649366478[] = {
/* columns rows colors chars-per-pixel */
"64 64 6 1 ",
"  c None",
". c black",
"X c #B21030",
"o c #C37100",
"O c #DB4161",
"+ c #FFA200",
/* pixels */
"                                ++++++++                        ",
"                                ++++++++                        ",
"                                ++++++++                        ",
"                                ++++++++                        ",
"                                oooo....                        ",
"                                oooo....                        ",
"                                oooo....                        ",
"                                oooo....                        ",
"                    ....OOOOOOOOXXXXXXXXXXXX....                ",
"                    ....OOOOOOOOXXXXXXXXXXXX....                ",
"                    ....OOOOOOOOXXXXXXXXXXXX....                ",
"                    ....OOOOOOOOXXXXXXXXXXXX....                ",
"                ....OOOOXXXX....XXXXXXXXXXXXXXXX....            ",
"                ....OOOOXXXX....XXXXXXXXXXXXXXXX....            ",
"                ....OOOOXXXX....XXXXXXXXXXXXXXXX....            ",
"                ....OOOOXXXX....XXXXXXXXXXXXXXXX....            ",
"            ....................XXXXXXXXXXXXXXXXXXXX....        ",
"            ....................XXXXXXXXXXXXXXXXXXXX....        ",
"            ....................XXXXXXXXXXXXXXXXXXXX....        ",
"            ....................XXXXXXXXXXXXXXXXXXXX....        ",
"            ....XXXXXXXXXXXXXXXX....XXXXOOOOOOOOXXXX....        ",
"            ....XXXXXXXXXXXXXXXX....XXXXOOOOOOOOXXXX....        ",
"            ....XXXXXXXXXXXXXXXX....XXXXOOOOOOOOXXXX....        ",
"            ....XXXXXXXXXXXXXXXX....XXXXOOOOOOOOXXXX....        ",
"            ....OOOO........XXXXXXXX....OOOO....XXXX....        ",
"            ....OOOO........XXXXXXXX....OOOO....XXXX....        ",
"            ....OOOO........XXXXXXXX....OOOO....XXXX....        ",
"            ....OOOO........XXXXXXXX....OOOO....XXXX....        ",
"            ....XXXX........XXXXXXXX....XXXX............        ",
"            ....XXXX........XXXXXXXX....XXXX............        ",
"            ....XXXX........XXXXXXXX....XXXX............        ",
"            ....XXXX........XXXXXXXX....XXXX............        ",
"            ........++++....XXXXXXXX....................        ",
"            ........++++....XXXXXXXX....................        ",
"            ........++++....XXXXXXXX....................        ",
"            ........++++....XXXXXXXX....................        ",
"            ........++++................oooo....XXXX....        ",
"            ........++++................oooo....XXXX....        ",
"            ........++++................oooo....XXXX....        ",
"            ........++++................oooo....XXXX....        ",
"            ....XXXXXXXX........++++++++oooo....XXXX....        ",
"            ....XXXXXXXX........++++++++oooo....XXXX....        ",
"            ....XXXXXXXX........++++++++oooo....XXXX....        ",
"            ....XXXXXXXX........++++++++oooo....XXXX....        ",
"                ....XXXXXXXX....oooooooooooo....XXXXXXXX....    ",
"                ....XXXXXXXX....oooooooooooo....XXXXXXXX....    ",
"                ....XXXXXXXX....oooooooooooo....XXXXXXXX....    ",
"                ....XXXXXXXX....oooooooooooo....XXXXXXXX....    ",
"                    ................oooo............XXXX....    ",
"                    ................oooo............XXXX....    ",
"                    ................oooo............XXXX....    ",
"                    ................oooo............XXXX....    ",
"                    ....OOOOXXXX............XXXX....XXXX....    ",
"                    ....OOOOXXXX............XXXX....XXXX....    ",
"                    ....OOOOXXXX............XXXX....XXXX....    ",
"                    ....OOOOXXXX............XXXX....XXXX....    ",
"                        ....OOOOXXXX....XXXX............        ",
"                        ....OOOOXXXX....XXXX............        ",
"                        ....OOOOXXXX....XXXX............        ",
"                        ....OOOOXXXX....XXXX............        ",
"                                                                ",
"                                                                ",
"                                                                ",
"                                                                "
};
