/* XPM */
static char *hero101649366479[] = {
/* columns rows colors chars-per-pixel */
"64 64 6 1 ",
"  c None",
". c black",
"X c #B21030",
"o c #C37100",
"O c #DB4161",
"+ c #FFA200",
/* pixels */
"                                ++++++++                        ",
"                                ++++++++                        ",
"                                ++++++++                        ",
"                                ++++++++                        ",
"                                oooo....                        ",
"                                oooo....                        ",
"                                oooo....                        ",
"                                oooo....                        ",
"                    ....OOOOOOOOXXXXXXXXXXXX....                ",
"                    ....OOOOOOOOXXXXXXXXXXXX....                ",
"                    ....OOOOOOOOXXXXXXXXXXXX....                ",
"                    ....OOOOOOOOXXXXXXXXXXXX....                ",
"                ....XXXXXXXX....XXXXXXXXXXXXXXXX....            ",
"                ....XXXXXXXX....XXXXXXXXXXXXXXXX....            ",
"                ....XXXXXXXX....XXXXXXXXXXXXXXXX....            ",
"                ....XXXXXXXX....XXXXXXXXXXXXXXXX....            ",
"            ....................XXXXXXXXXXXXXXXXXXXX....        ",
"            ....................XXXXXXXXXXXXXXXXXXXX....        ",
"            ....................XXXXXXXXXXXXXXXXXXXX....        ",
"            ....................XXXXXXXXXXXXXXXXXXXX....        ",
"            ....XXXXXXXXXXXX....XXXXXXXXOOOOOOOOXXXX....        ",
"            ....XXXXXXXXXXXX....XXXXXXXXOOOOOOOOXXXX....        ",
"            ....XXXXXXXXXXXX....XXXXXXXXOOOOOOOOXXXX....        ",
"            ....XXXXXXXXXXXX....XXXXXXXXOOOOOOOOXXXX....        ",
"            ....OOOO........XXXX........OOOO....XXXX....        ",
"            ....OOOO........XXXX........OOOO....XXXX....        ",
"            ....OOOO........XXXX........OOOO....XXXX....        ",
"            ....OOOO........XXXX........OOOO....XXXX....        ",
"            ....XXXX........XXXXXXXX....XXXXXXXX........        ",
"            ....XXXX........XXXXXXXX....XXXXXXXX........        ",
"            ....XXXX........XXXXXXXX....XXXXXXXX........        ",
"            ....XXXX........XXXXXXXX....XXXXXXXX........        ",
"            ........oooo....XXXXXXXX................            ",
"            ........oooo....XXXXXXXX................            ",
"            ........oooo....XXXXXXXX................            ",
"            ........oooo....XXXXXXXX................            ",
"            ........oooo............oooo....XXXX....            ",
"            ........oooo............oooo....XXXX....            ",
"            ........oooo............oooo....XXXX....            ",
"            ........oooo............oooo....XXXX....            ",
"            ....XXXXXXXX....++++++++oooo....XXXX....            ",
"            ....XXXXXXXX....++++++++oooo....XXXX....            ",
"            ....XXXXXXXX....++++++++oooo....XXXX....            ",
"            ....XXXXXXXX....++++++++oooo....XXXX....            ",
"                ....XXXX....oooooooooooo....XXXXXXXX....        ",
"                ....XXXX....oooooooooooo....XXXXXXXX....        ",
"                ....XXXX....oooooooooooo....XXXXXXXX....        ",
"                ....XXXX....oooooooooooo....XXXXXXXX....        ",
"                    ............oooo............XXXXXXXX        ",
"                    ............oooo............XXXXXXXX        ",
"                    ............oooo............XXXXXXXX        ",
"                    ............oooo............XXXXXXXX        ",
"                    XXXXXXXX............XXXX....XXXXXXXX        ",
"                    XXXXXXXX............XXXX....XXXXXXXX        ",
"                    XXXXXXXX............XXXX....XXXXXXXX        ",
"                    XXXXXXXX............XXXX....XXXXXXXX        ",
"                        XXXXXXXX....XXXXXXXX............        ",
"                        XXXXXXXX....XXXXXXXX............        ",
"                        XXXXXXXX....XXXXXXXX............        ",
"                        XXXXXXXX....XXXXXXXX............        ",
"                                                                ",
"                                                                ",
"                                                                ",
"                                                                "
};
