/* XPM */
static char *hero31649366477[] = {
/* columns rows colors chars-per-pixel */
"64 64 6 1 ",
"  c None",
". c black",
"X c #B21030",
"o c #C37100",
"O c #DB4161",
"+ c #FFA200",
/* pixels */
"                                ++++++++                        ",
"                                ++++++++                        ",
"                                ++++++++                        ",
"                                ++++++++                        ",
"                                oooo....                        ",
"                                oooo....                        ",
"                                oooo....                        ",
"                                oooo....                        ",
"                    ....OOOOOOOOXXXXXXXXXXXX....                ",
"                    ....OOOOOOOOXXXXXXXXXXXX....                ",
"                    ....OOOOOOOOXXXXXXXXXXXX....                ",
"                    ....OOOOOOOOXXXXXXXXXXXX....                ",
"                ....OOOOXXXX....XXXXXXXXXXXXXXXX....            ",
"                ....OOOOXXXX....XXXXXXXXXXXXXXXX....            ",
"                ....OOOOXXXX....XXXXXXXXXXXXXXXX....            ",
"                ....OOOOXXXX....XXXXXXXXXXXXXXXX....            ",
"            ....................XXXXXXXXXXXXXXXXXXXX....        ",
"            ....................XXXXXXXXXXXXXXXXXXXX....        ",
"            ....................XXXXXXXXXXXXXXXXXXXX....        ",
"            ....................XXXXXXXXXXXXXXXXXXXX....        ",
"            ....XXXXXXXXXXXXXXXX....XXXXOOOOOOOOXXXX....        ",
"            ....XXXXXXXXXXXXXXXX....XXXXOOOOOOOOXXXX....        ",
"            ....XXXXXXXXXXXXXXXX....XXXXOOOOOOOOXXXX....        ",
"            ....XXXXXXXXXXXXXXXX....XXXXOOOOOOOOXXXX....        ",
"            ....OOOO....XXXXXXXXXXXX....XXXX....XXXX....        ",
"            ....OOOO....XXXXXXXXXXXX....XXXX....XXXX....        ",
"            ....OOOO....XXXXXXXXXXXX....XXXX....XXXX....        ",
"            ....OOOO....XXXXXXXXXXXX....XXXX....XXXX....        ",
"            ............OOOOXXXXXXXX....XXXXXXXX........        ",
"            ............OOOOXXXXXXXX....XXXXXXXX........        ",
"            ............OOOOXXXXXXXX....XXXXXXXX........        ",
"            ............OOOOXXXXXXXX....XXXXXXXX........        ",
"            ....++++........XXXXXXXX................            ",
"            ....++++........XXXXXXXX................            ",
"            ....++++........XXXXXXXX................            ",
"            ....++++........XXXXXXXX................            ",
"            ....++++................oooo....XXXX....            ",
"            ....++++................oooo....XXXX....            ",
"            ....++++................oooo....XXXX....            ",
"            ....++++................oooo....XXXX....            ",
"            ....XXXXXXXX....++++++++oooo....XXXX....            ",
"            ....XXXXXXXX....++++++++oooo....XXXX....            ",
"            ....XXXXXXXX....++++++++oooo....XXXX....            ",
"            ....XXXXXXXX....++++++++oooo....XXXX....            ",
"                ....XXXX....oooooooooooo....XXXXXXXX....        ",
"                ....XXXX....oooooooooooo....XXXXXXXX....        ",
"                ....XXXX....oooooooooooo....XXXXXXXX....        ",
"                ....XXXX....oooooooooooo....XXXXXXXX....        ",
"                    ....XXXX....oooo............XXXX....        ",
"                    ....XXXX....oooo............XXXX....        ",
"                    ....XXXX....oooo............XXXX....        ",
"                    ....XXXX....oooo............XXXX....        ",
"                    ............................XXXX....        ",
"                    ............................XXXX....        ",
"                    ............................XXXX....        ",
"                    ............................XXXX....        ",
"                        ....OOOOXXXXXXXX....                    ",
"                        ....OOOOXXXXXXXX....                    ",
"                        ....OOOOXXXXXXXX....                    ",
"                        ....OOOOXXXXXXXX....                    ",
"                                                                ",
"                                                                ",
"                                                                ",
"                                                                "
};
