/* XPM */
static char *hero141649366479[] = {
/* columns rows colors chars-per-pixel */
"64 64 6 1 ",
"  c None",
". c black",
"X c #B21030",
"o c #C37100",
"O c #DB4161",
"+ c #FFA200",
/* pixels */
"                            ++++++++                            ",
"                            ++++++++                            ",
"                            ++++++++                            ",
"                            ++++++++                            ",
"                            ....oooo                            ",
"                            ....oooo                            ",
"                            ....oooo                            ",
"                            ....oooo                            ",
"                    ....XXXXXXXXXXXXXXXX....                    ",
"                    ....XXXXXXXXXXXXXXXX....                    ",
"                    ....XXXXXXXXXXXXXXXX....                    ",
"                    ....XXXXXXXXXXXXXXXX....                    ",
"                ....XXXXOOOOOOOOOOOOOOOOXXXX....                ",
"                ....XXXXOOOOOOOOOOOOOOOOXXXX....                ",
"                ....XXXXOOOOOOOOOOOOOOOOXXXX....                ",
"                ....XXXXOOOOOOOOOOOOOOOOXXXX....                ",
"            ....XXXXXXXXOOOOOOOOOOOOXXXXXXXXXXXX....            ",
"            ....XXXXXXXXOOOOOOOOOOOOXXXXXXXXXXXX....            ",
"            ....XXXXXXXXOOOOOOOOOOOOXXXXXXXXXXXX....            ",
"            ....XXXXXXXXOOOOOOOOOOOOXXXXXXXXXXXX....            ",
"            ....XXXXXXXXXXXXXXXXXXXXXXXXXXXXXXXX....            ",
"            ....XXXXXXXXXXXXXXXXXXXXXXXXXXXXXXXX....            ",
"            ....XXXXXXXXXXXXXXXXXXXXXXXXXXXXXXXX....            ",
"            ....XXXXXXXXXXXXXXXXXXXXXXXXXXXXXXXX....            ",
"            ....XXXXXXXXXXXXXXXXXXXXXXXXXXXX....OOOO....        ",
"            ....XXXXXXXXXXXXXXXXXXXXXXXXXXXX....OOOO....        ",
"            ....XXXXXXXXXXXXXXXXXXXXXXXXXXXX....OOOO....        ",
"            ....XXXXXXXXXXXXXXXXXXXXXXXXXXXX....OOOO....        ",
"            ....XXXXXXXXXXXXXXXXXXXXXXXXXXXX....XXXX....        ",
"            ....XXXXXXXXXXXXXXXXXXXXXXXXXXXX....XXXX....        ",
"            ....XXXXXXXXXXXXXXXXXXXXXXXXXXXX....XXXX....        ",
"            ....XXXXXXXXXXXXXXXXXXXXXXXXXXXX....XXXX....        ",
"            ........XXXXXXXXXXXX........................        ",
"            ........XXXXXXXXXXXX........................        ",
"            ........XXXXXXXXXXXX........................        ",
"            ........XXXXXXXXXXXX........................        ",
"            ........................................            ",
"            ........................................            ",
"            ........................................            ",
"            ........................................            ",
"        ....oooo....XXXX............XXXX....oooo........        ",
"        ....oooo....XXXX............XXXX....oooo........        ",
"        ....oooo....XXXX............XXXX....oooo........        ",
"        ....oooo....XXXX............XXXX....oooo........        ",
"        ....oooo........XXXXXXXXXXXXXXXX....oooooooo....        ",
"        ....oooo........XXXXXXXXXXXXXXXX....oooooooo....        ",
"        ....oooo........XXXXXXXXXXXXXXXX....oooooooo....        ",
"        ....oooo........XXXXXXXXXXXXXXXX....oooooooo....        ",
"        ............XXXXOOOOXXXXXXXX............oooo....        ",
"        ............XXXXOOOOXXXXXXXX............oooo....        ",
"        ............XXXXOOOOXXXXXXXX............oooo....        ",
"        ............XXXXOOOOXXXXXXXX............oooo....        ",
"                XXXXOOOOXXXXXXXXXXXX............XXXX            ",
"                XXXXOOOOXXXXXXXXXXXX............XXXX            ",
"                XXXXOOOOXXXXXXXXXXXX............XXXX            ",
"                XXXXOOOOXXXXXXXXXXXX............XXXX            ",
"                XXXXOOOOXXXXXXXXXXXX........XXXXXXXX            ",
"                XXXXOOOOXXXXXXXXXXXX........XXXXXXXX            ",
"                XXXXOOOOXXXXXXXXXXXX........XXXXXXXX            ",
"                XXXXOOOOXXXXXXXXXXXX........XXXXXXXX            ",
"                ............                                    ",
"                ............                                    ",
"                ............                                    ",
"                ............                                    "
};
