/* XPM */
static char *hero11649134900[] = {
/* columns rows colors chars-per-pixel */
"64 64 6 1 ",
"  c None",
". c black",
"X c #B21030",
"o c #C37100",
"O c #DB4161",
"+ c #FFA200",
/* pixels */
"                            ++++++++                            ",
"                            ++++++++                            ",
"                            ++++++++                            ",
"                            ++++++++                            ",
"                            oooo....                            ",
"                            oooo....                            ",
"                            oooo....                            ",
"                            oooo....                            ",
"                    ....XXXXXXXXXXXXXXXX....                    ",
"                    ....XXXXXXXXXXXXXXXX....                    ",
"                    ....XXXXXXXXXXXXXXXX....                    ",
"                    ....XXXXXXXXXXXXXXXX....                    ",
"                ....XXXXOOOOOOOOOOOOOOOOXXXX....                ",
"                ....XXXXOOOOOOOOOOOOOOOOXXXX....                ",
"                ....XXXXOOOOOOOOOOOOOOOOXXXX....                ",
"                ....XXXXOOOOOOOOOOOOOOOOXXXX....                ",
"            ....XXXX........................XXXX....            ",
"            ....XXXX........................XXXX....            ",
"            ....XXXX........................XXXX....            ",
"            ....XXXX........................XXXX....            ",
"            ........OOOOOOOOOOOOOOOOOOOOOOOO........            ",
"            ........OOOOOOOOOOOOOOOOOOOOOOOO........            ",
"            ........OOOOOOOOOOOOOOOOOOOOOOOO........            ",
"            ........OOOOOOOOOOOOOOOOOOOOOOOO........            ",
"            ....OOOO....OOOO........OOOO....OOOO....            ",
"            ....OOOO....OOOO........OOOO....OOOO....            ",
"            ....OOOO....OOOO........OOOO....OOOO....            ",
"            ....OOOO....OOOO........OOOO....OOOO....            ",
"            ....XXXX....XXXX........XXXX....XXXX....            ",
"            ....XXXX....XXXX........XXXX....XXXX....            ",
"            ....XXXX....XXXX........XXXX....XXXX....            ",
"            ....XXXX....XXXX........XXXX....XXXX....            ",
"            ....XXXX....++++........++++....XXXX....            ",
"            ....XXXX....++++........++++....XXXX....            ",
"            ....XXXX....++++........++++....XXXX....            ",
"            ....XXXX....++++........++++....XXXX....            ",
"            ............++++........++++............            ",
"            ............++++........++++............            ",
"            ............++++........++++............            ",
"            ............++++........++++............            ",
"        ....ooooXXXXXXXX................XXXX....oooo....        ",
"        ....ooooXXXXXXXX................XXXX....oooo....        ",
"        ....ooooXXXXXXXX................XXXX....oooo....        ",
"        ....ooooXXXXXXXX................XXXX....oooo....        ",
"    ....oooo++++....XXXXXXXXOOOOOOOOXXXXXXXX....++++oooo....    ",
"    ....oooo++++....XXXXXXXXOOOOOOOOXXXXXXXX....++++oooo....    ",
"    ....oooo++++....XXXXXXXXOOOOOOOOXXXXXXXX....++++oooo....    ",
"    ....oooo++++....XXXXXXXXOOOOOOOOXXXXXXXX....++++oooo....    ",
"    ....oooooooo........XXXXXXXXXXXXXXXX........oooooooo....    ",
"    ....oooooooo........XXXXXXXXXXXXXXXX........oooooooo....    ",
"    ....oooooooo........XXXXXXXXXXXXXXXX........oooooooo....    ",
"    ....oooooooo........XXXXXXXXXXXXXXXX........oooooooo....    ",
"        ................................................        ",
"        ................................................        ",
"        ................................................        ",
"        ................................................        ",
"                ....XXXXOOOO        OOOOXXXX....                ",
"                ....XXXXOOOO        OOOOXXXX....                ",
"                ....XXXXOOOO        OOOOXXXX....                ",
"                ....XXXXOOOO        OOOOXXXX....                ",
"                                                                ",
"                                                                ",
"                                                                ",
"                                                                "
};
