/* XPM */
static char *hero51649366478[] = {
/* columns rows colors chars-per-pixel */
"64 64 6 1 ",
"  c None",
". c black",
"X c #B21030",
"o c #C37100",
"O c #DB4161",
"+ c #FFA200",
/* pixels */
"                                                                ",
"                                                                ",
"                                                                ",
"                                                                ",
"                                    ++++++++                    ",
"                                    ++++++++                    ",
"                                    ++++++++                    ",
"                                    ++++++++                    ",
"                                    oooo....                    ",
"                                    oooo....                    ",
"                                    oooo....                    ",
"                                    oooo....                    ",
"                    ....XXXXXXXXXXXXXXXXXXXX....                ",
"                    ....XXXXXXXXXXXXXXXXXXXX....                ",
"                    ....XXXXXXXXXXXXXXXXXXXX....                ",
"                    ....XXXXXXXXXXXXXXXXXXXX....                ",
"                ....XXXXOOOOOOOOOOOOOOOOXXXXXXXX....            ",
"                ....XXXXOOOOOOOOOOOOOOOOXXXXXXXX....            ",
"                ....XXXXOOOOOOOOOOOOOOOOXXXXXXXX....            ",
"                ....XXXXOOOOOOOOOOOOOOOOXXXXXXXX....            ",
"            ....XXXX....................................        ",
"            ....XXXX....................................        ",
"            ....XXXX....................................        ",
"            ....XXXX....................................        ",
"        ....XXXXOOOOOOOOOOOOOOOOOOOOOOOOOOOO....XXXX....        ",
"        ....XXXXOOOOOOOOOOOOOOOOOOOOOOOOOOOO....XXXX....        ",
"        ....XXXXOOOOOOOOOOOOOOOOOOOOOOOOOOOO....XXXX....        ",
"        ....XXXXOOOOOOOOOOOOOOOOOOOOOOOOOOOO....XXXX....        ",
"        ....XXXXOOOO....OOOO....OOOO....OOOO....XXXX....        ",
"        ....XXXXOOOO....OOOO....OOOO....OOOO....XXXX....        ",
"        ....XXXXOOOO....OOOO....OOOO....OOOO....XXXX....        ",
"        ....XXXXOOOO....OOOO....OOOO....OOOO....XXXX....        ",
"        ........XXXX....XXXX....XXXX....XXXX............        ",
"        ........XXXX....XXXX....XXXX....XXXX............        ",
"        ........XXXX....XXXX....XXXX....XXXX............        ",
"        ........XXXX....XXXX....XXXX....XXXX............        ",
"            ....oooo........++++................oooo....        ",
"            ....oooo........++++................oooo....        ",
"            ....oooo........++++................oooo....        ",
"            ....oooo........++++................oooo....        ",
"            ....oooo........++++........XXXX....oooo....        ",
"            ....oooo........++++........XXXX....oooo....        ",
"            ....oooo........++++........XXXX....oooo....        ",
"            ....oooo........++++........XXXX....oooo....        ",
"            ........................XXXXXXXX........            ",
"            ........................XXXXXXXX........            ",
"            ........................XXXXXXXX........            ",
"            ........................XXXXXXXX........            ",
"            ....++++++++ooooOOOOXXXXXXXX........                ",
"            ....++++++++ooooOOOOXXXXXXXX........                ",
"            ....++++++++ooooOOOOXXXXXXXX........                ",
"            ....++++++++ooooOOOOXXXXXXXX........                ",
"            ....++++++++++++XXXXXXXX....OOOOOOOO                ",
"            ....++++++++++++XXXXXXXX....OOOOOOOO                ",
"            ....++++++++++++XXXXXXXX....OOOOOOOO                ",
"            ....++++++++++++XXXXXXXX....OOOOOOOO                ",
"                ....oooooooo........XXXXXXXXOOOO                ",
"                ....oooooooo........XXXXXXXXOOOO                ",
"                ....oooooooo........XXXXXXXXOOOO                ",
"                ....oooooooo........XXXXXXXXOOOO                ",
"                ........        ....XXXXXXXX....                ",
"                ........        ....XXXXXXXX....                ",
"                ........        ....XXXXXXXX....                ",
"                ........        ....XXXXXXXX....                "
};
