/* XPM */
static char *hero71649366478[] = {
/* columns rows colors chars-per-pixel */
"64 64 6 1 ",
"  c None",
". c black",
"X c #B21030",
"o c #C37100",
"O c #DB4161",
"+ c #FFA200",
/* pixels */
"                                                                ",
"                                                                ",
"                                                                ",
"                                                                ",
"                    ++++++++                                    ",
"                    ++++++++                                    ",
"                    ++++++++                                    ",
"                    ++++++++                                    ",
"                    ....oooo                                    ",
"                    ....oooo                                    ",
"                    ....oooo                                    ",
"                    ....oooo                                    ",
"                ....XXXXXXXXXXXXXXXXXXXX....                    ",
"                ....XXXXXXXXXXXXXXXXXXXX....                    ",
"                ....XXXXXXXXXXXXXXXXXXXX....                    ",
"                ....XXXXXXXXXXXXXXXXXXXX....                    ",
"            ....XXXXXXXXOOOOOOOOOOOOOOOOXXXX....                ",
"            ....XXXXXXXXOOOOOOOOOOOOOOOOXXXX....                ",
"            ....XXXXXXXXOOOOOOOOOOOOOOOOXXXX....                ",
"            ....XXXXXXXXOOOOOOOOOOOOOOOOXXXX....                ",
"        ....................................XXXX....            ",
"        ....................................XXXX....            ",
"        ....................................XXXX....            ",
"        ....................................XXXX....            ",
"        ....XXXX....OOOOOOOOOOOOOOOOOOOOOOOOOOOOXXXX....        ",
"        ....XXXX....OOOOOOOOOOOOOOOOOOOOOOOOOOOOXXXX....        ",
"        ....XXXX....OOOOOOOOOOOOOOOOOOOOOOOOOOOOXXXX....        ",
"        ....XXXX....OOOOOOOOOOOOOOOOOOOOOOOOOOOOXXXX....        ",
"        ....XXXX....OOOO....OOOO....OOOO....OOOOXXXX....        ",
"        ....XXXX....OOOO....OOOO....OOOO....OOOOXXXX....        ",
"        ....XXXX....OOOO....OOOO....OOOO....OOOOXXXX....        ",
"        ....XXXX....OOOO....OOOO....OOOO....OOOOXXXX....        ",
"        ............XXXX....XXXX....XXXX....XXXX........        ",
"        ............XXXX....XXXX....XXXX....XXXX........        ",
"        ............XXXX....XXXX....XXXX....XXXX........        ",
"        ............XXXX....XXXX....XXXX....XXXX........        ",
"        ....oooo................++++........oooo....            ",
"        ....oooo................++++........oooo....            ",
"        ....oooo................++++........oooo....            ",
"        ....oooo................++++........oooo....            ",
"        ....oooo....XXXX........++++........oooo....            ",
"        ....oooo....XXXX........++++........oooo....            ",
"        ....oooo....XXXX........++++........oooo....            ",
"        ....oooo....XXXX........++++........oooo....            ",
"            ........XXXXXXXX........................            ",
"            ........XXXXXXXX........................            ",
"            ........XXXXXXXX........................            ",
"            ........XXXXXXXX........................            ",
"                ........XXXXXXXXOOOOoooo++++++++....            ",
"                ........XXXXXXXXOOOOoooo++++++++....            ",
"                ........XXXXXXXXOOOOoooo++++++++....            ",
"                ........XXXXXXXXOOOOoooo++++++++....            ",
"                OOOOOOOO....XXXXXXXX++++++++++++....            ",
"                OOOOOOOO....XXXXXXXX++++++++++++....            ",
"                OOOOOOOO....XXXXXXXX++++++++++++....            ",
"                OOOOOOOO....XXXXXXXX++++++++++++....            ",
"                OOOOXXXXXXXX........oooooooo....                ",
"                OOOOXXXXXXXX........oooooooo....                ",
"                OOOOXXXXXXXX........oooooooo....                ",
"                OOOOXXXXXXXX........oooooooo....                ",
"                ....XXXXXXXX....        ........                ",
"                ....XXXXXXXX....        ........                ",
"                ....XXXXXXXX....        ........                ",
"                ....XXXXXXXX....        ........                "
};
