/* XPM */
static char *hero91649366478[] = {
/* columns rows colors chars-per-pixel */
"64 64 6 1 ",
"  c None",
". c black",
"X c #B21030",
"o c #C37100",
"O c #DB4161",
"+ c #FFA200",
/* pixels */
"                                                                ",
"                                                                ",
"                                                                ",
"                                                                ",
"                            ++++++++                            ",
"                            ++++++++                            ",
"                            ++++++++                            ",
"                            ++++++++                            ",
"                            oooo....                            ",
"                            oooo....                            ",
"                            oooo....                            ",
"                            oooo....                            ",
"                    ....OOOOOOOOXXXXXXXXXXXX....                ",
"                    ....OOOOOOOOXXXXXXXXXXXX....                ",
"                    ....OOOOOOOOXXXXXXXXXXXX....                ",
"                    ....OOOOOOOOXXXXXXXXXXXX....                ",
"            ....XXXXOOOOOOOOXXXX....OOOOOOOOXXXX....            ",
"            ....XXXXOOOOOOOOXXXX....OOOOOOOOXXXX....            ",
"            ....XXXXOOOOOOOOXXXX....OOOOOOOOXXXX....            ",
"            ....XXXXOOOOOOOOXXXX....OOOOOOOOXXXX....            ",
"            ........................XXXXXXXXXXXXXXXX....        ",
"            ........................XXXXXXXXXXXXXXXX....        ",
"            ........................XXXXXXXXXXXXXXXX....        ",
"            ........................XXXXXXXXXXXXXXXX....        ",
"        ....XXXXOOOOXXXXOOOOXXXXXXXX....XXXXOOOOOOOO....        ",
"        ....XXXXOOOOXXXXOOOOXXXXXXXX....XXXXOOOOOOOO....        ",
"        ....XXXXOOOOXXXXOOOOXXXXXXXX....XXXXOOOOOOOO....        ",
"        ....XXXXOOOOXXXXOOOOXXXXXXXX....XXXXOOOOOOOO....        ",
"        ....XXXX....OOOO....OOOOXXXXXXXX....OOOO....XXXX        ",
"        ....XXXX....OOOO....OOOOXXXXXXXX....OOOO....XXXX        ",
"        ....XXXX....OOOO....OOOOXXXXXXXX....OOOO....XXXX        ",
"        ....XXXX....OOOO....OOOOXXXXXXXX....OOOO....XXXX        ",
"        ....XXXX....XXXX....XXXXXXXXXXXX....XXXX........        ",
"        ....XXXX....XXXX....XXXXXXXXXXXX....XXXX........        ",
"        ....XXXX....XXXX....XXXXXXXXXXXX....XXXX........        ",
"        ....XXXX....XXXX....XXXXXXXXXXXX....XXXX........        ",
"            ....oooo....++++....XXXXXXXX............            ",
"            ....oooo....++++....XXXXXXXX............            ",
"            ....oooo....++++....XXXXXXXX............            ",
"            ....oooo....++++....XXXXXXXX............            ",
"            ....oooo....++++................oooooooo....        ",
"            ....oooo....++++................oooooooo....        ",
"            ....oooo....++++................oooooooo....        ",
"            ....oooo....++++................oooooooo....        ",
"        ....ooooXXXXXXXXXXXX....................ooooXXXX        ",
"        ....ooooXXXXXXXXXXXX....................ooooXXXX        ",
"        ....ooooXXXXXXXXXXXX....................ooooXXXX        ",
"        ....ooooXXXXXXXXXXXX....................ooooXXXX        ",
"        ....oooo....XXXXXXXXXXXX....oooo++++++++ooooXXXX....    ",
"        ....oooo....XXXXXXXXXXXX....oooo++++++++ooooXXXX....    ",
"        ....oooo....XXXXXXXXXXXX....oooo++++++++ooooXXXX....    ",
"        ....oooo....XXXXXXXXXXXX....oooo++++++++ooooXXXX....    ",
"            ............XXXX............oooooooo........XXXX    ",
"            ............XXXX............oooooooo........XXXX    ",
"            ............XXXX............oooooooo........XXXX    ",
"            ............XXXX............oooooooo........XXXX    ",
"            ....XXXXOOOOXXXX................XXXX........XXXX    ",
"            ....XXXXOOOOXXXX................XXXX........XXXX    ",
"            ....XXXXOOOOXXXX................XXXX........XXXX    ",
"            ....XXXXOOOOXXXX................XXXX........XXXX    ",
"                                                                ",
"                                                                ",
"                                                                ",
"                                                                "
};
