/* XPM */
static char *hero131649366479[] = {
/* columns rows colors chars-per-pixel */
"64 64 6 1 ",
"  c None",
". c black",
"X c #B21030",
"o c #C37100",
"O c #DB4161",
"+ c #FFA200",
/* pixels */
"                                                                ",
"                                                                ",
"                                                                ",
"                                                                ",
"                                    ++++++++                    ",
"                                    ++++++++                    ",
"                                    ++++++++                    ",
"                                    ++++++++                    ",
"                                    oooo....                    ",
"                                    oooo....                    ",
"                                    oooo....                    ",
"                                    oooo....                    ",
"                    ....XXXXXXXXXXXXXXXXXXXX....                ",
"                    ....XXXXXXXXXXXXXXXXXXXX....                ",
"                    ....XXXXXXXXXXXXXXXXXXXX....                ",
"                    ....XXXXXXXXXXXXXXXXXXXX....                ",
"                ....XXXXOOOOOOOOOOOOOOOOXXXXXXXX....            ",
"                ....XXXXOOOOOOOOOOOOOOOOXXXXXXXX....            ",
"                ....XXXXOOOOOOOOOOOOOOOOXXXXXXXX....            ",
"                ....XXXXOOOOOOOOOOOOOOOOXXXXXXXX....            ",
"            ........XXXXXXXXOOOOOOOOXXXXXXXXXXXXXXXX....        ",
"            ........XXXXXXXXOOOOOOOOXXXXXXXXXXXXXXXX....        ",
"            ........XXXXXXXXOOOOOOOOXXXXXXXXXXXXXXXX....        ",
"            ........XXXXXXXXOOOOOOOOXXXXXXXXXXXXXXXX....        ",
"        ....OOOOXXXXOOOOOOOOXXXXXXXXXXXXXXXXXXXXXXXX....        ",
"        ....OOOOXXXXOOOOOOOOXXXXXXXXXXXXXXXXXXXXXXXX....        ",
"        ....OOOOXXXXOOOOOOOOXXXXXXXXXXXXXXXXXXXXXXXX....        ",
"        ....OOOOXXXXOOOOOOOOXXXXXXXXXXXXXXXXXXXXXXXX....        ",
"        ....XXXX....XXXX....XXXXXXXXXXXXXXXXXXXXXXXX....        ",
"        ....XXXX....XXXX....XXXXXXXXXXXXXXXXXXXXXXXX....        ",
"        ....XXXX....XXXX....XXXXXXXXXXXXXXXXXXXXXXXX....        ",
"        ....XXXX....XXXX....XXXXXXXXXXXXXXXXXXXXXXXX....        ",
"        ....XXXX....XXXX....XXXXXXXXXXXXXXXXXXXXXXXX....        ",
"        ....XXXX....XXXX....XXXXXXXXXXXXXXXXXXXXXXXX....        ",
"        ....XXXX....XXXX....XXXXXXXXXXXXXXXXXXXXXXXX....        ",
"        ....XXXX....XXXX....XXXXXXXXXXXXXXXXXXXXXXXX....        ",
"            ............XXXXXXXXXXXXXXXXXXXXXXXX........        ",
"            ............XXXXXXXXXXXXXXXXXXXXXXXX........        ",
"            ............XXXXXXXXXXXXXXXXXXXXXXXX........        ",
"            ............XXXXXXXXXXXXXXXXXXXXXXXX........        ",
"            ....oooo++++........................oooo....        ",
"            ....oooo++++........................oooo....        ",
"            ....oooo++++........................oooo....        ",
"            ....oooo++++........................oooo....        ",
"            ........++++....XXXX............XXXX....            ",
"            ........++++....XXXX............XXXX....            ",
"            ........++++....XXXX............XXXX....            ",
"            ........++++....XXXX............XXXX....            ",
"            ....oooooooo........XXXXOOOOXXXXXXXX....            ",
"            ....oooooooo........XXXXOOOOXXXXXXXX....            ",
"            ....oooooooo........XXXXOOOOXXXXXXXX....            ",
"            ....oooooooo........XXXXOOOOXXXXXXXX....            ",
"        ........oooooooo........XXXXOOOOOOOOXXXXXXXX....        ",
"        ........oooooooo........XXXXOOOOOOOOXXXXXXXX....        ",
"        ........oooooooo........XXXXOOOOOOOOXXXXXXXX....        ",
"        ........oooooooo........XXXXOOOOOOOOXXXXXXXX....        ",
"        ....OOOOXXXX............XXXXXXXXOOOOXXXXXXXX....        ",
"        ....OOOOXXXX............XXXXXXXXOOOOXXXXXXXX....        ",
"        ....OOOOXXXX............XXXXXXXXOOOOXXXXXXXX....        ",
"        ....OOOOXXXX............XXXXXXXXOOOOXXXXXXXX....        ",
"            ................    ....XXXXXXXXXXXXXXXX            ",
"            ................    ....XXXXXXXXXXXXXXXX            ",
"            ................    ....XXXXXXXXXXXXXXXX            ",
"            ................    ....XXXXXXXXXXXXXXXX            "
};
