/* XPM */
static char *hero121649366479[] = {
/* columns rows colors chars-per-pixel */
"64 64 6 1 ",
"  c None",
". c black",
"X c #B21030",
"o c #C37100",
"O c #DB4161",
"+ c #FFA200",
/* pixels */
"                            ++++++++                            ",
"                            ++++++++                            ",
"                            ++++++++                            ",
"                            ++++++++                            ",
"                            oooo....                            ",
"                            oooo....                            ",
"                            oooo....                            ",
"                            oooo....                            ",
"                    ....XXXXXXXXXXXXXXXX....                    ",
"                    ....XXXXXXXXXXXXXXXX....                    ",
"                    ....XXXXXXXXXXXXXXXX....                    ",
"                    ....XXXXXXXXXXXXXXXX....                    ",
"                ....XXXXOOOOOOOOOOOOOOOOXXXX....                ",
"                ....XXXXOOOOOOOOOOOOOOOOXXXX....                ",
"                ....XXXXOOOOOOOOOOOOOOOOXXXX....                ",
"                ....XXXXOOOOOOOOOOOOOOOOXXXX....                ",
"            ....XXXXXXXXXXXXOOOOOOOOOOOOXXXXXXXX....            ",
"            ....XXXXXXXXXXXXOOOOOOOOOOOOXXXXXXXX....            ",
"            ....XXXXXXXXXXXXOOOOOOOOOOOOXXXXXXXX....            ",
"            ....XXXXXXXXXXXXOOOOOOOOOOOOXXXXXXXX....            ",
"            ....XXXXXXXXXXXXXXXXXXXXXXXXXXXXXXXX....            ",
"            ....XXXXXXXXXXXXXXXXXXXXXXXXXXXXXXXX....            ",
"            ....XXXXXXXXXXXXXXXXXXXXXXXXXXXXXXXX....            ",
"            ....XXXXXXXXXXXXXXXXXXXXXXXXXXXXXXXX....            ",
"        ....OOOO....XXXXXXXXXXXXXXXXXXXXXXXXXXXX....            ",
"        ....OOOO....XXXXXXXXXXXXXXXXXXXXXXXXXXXX....            ",
"        ....OOOO....XXXXXXXXXXXXXXXXXXXXXXXXXXXX....            ",
"        ....OOOO....XXXXXXXXXXXXXXXXXXXXXXXXXXXX....            ",
"        ....XXXX....XXXXXXXXXXXXXXXXXXXXXXXXXXXX....            ",
"        ....XXXX....XXXXXXXXXXXXXXXXXXXXXXXXXXXX....            ",
"        ....XXXX....XXXXXXXXXXXXXXXXXXXXXXXXXXXX....            ",
"        ....XXXX....XXXXXXXXXXXXXXXXXXXXXXXXXXXX....            ",
"        ........................XXXXXXXXXXXX........            ",
"        ........................XXXXXXXXXXXX........            ",
"        ........................XXXXXXXXXXXX........            ",
"        ........................XXXXXXXXXXXX........            ",
"            ........................................            ",
"            ........................................            ",
"            ........................................            ",
"            ........................................            ",
"        ........oooo....XXXX............XXXX....oooo....        ",
"        ........oooo....XXXX............XXXX....oooo....        ",
"        ........oooo....XXXX............XXXX....oooo....        ",
"        ........oooo....XXXX............XXXX....oooo....        ",
"        ....oooooooo....XXXXXXXXXXXXXXXX........oooo....        ",
"        ....oooooooo....XXXXXXXXXXXXXXXX........oooo....        ",
"        ....oooooooo....XXXXXXXXXXXXXXXX........oooo....        ",
"        ....oooooooo....XXXXXXXXXXXXXXXX........oooo....        ",
"        ....oooo............XXXXXXXXOOOOXXXX............        ",
"        ....oooo............XXXXXXXXOOOOXXXX............        ",
"        ....oooo............XXXXXXXXOOOOXXXX............        ",
"        ....oooo............XXXXXXXXOOOOXXXX............        ",
"            XXXX............XXXXXXXXXXXXOOOOXXXX                ",
"            XXXX............XXXXXXXXXXXXOOOOXXXX                ",
"            XXXX............XXXXXXXXXXXXOOOOXXXX                ",
"            XXXX............XXXXXXXXXXXXOOOOXXXX                ",
"            XXXXXXXX........XXXXXXXXXXXXOOOOXXXX                ",
"            XXXXXXXX........XXXXXXXXXXXXOOOOXXXX                ",
"            XXXXXXXX........XXXXXXXXXXXXOOOOXXXX                ",
"            XXXXXXXX........XXXXXXXXXXXXOOOOXXXX                ",
"                                    ............                ",
"                                    ............                ",
"                                    ............                ",
"                                    ............                "
};
