/* XPM */
static char *hero61649366478[] = {
/* columns rows colors chars-per-pixel */
"64 64 6 1 ",
"  c None",
". c black",
"X c #B21030",
"o c #C37100",
"O c #DB4161",
"+ c #FFA200",
/* pixels */
"                        ++++++++                                ",
"                        ++++++++                                ",
"                        ++++++++                                ",
"                        ++++++++                                ",
"                        ....oooo                                ",
"                        ....oooo                                ",
"                        ....oooo                                ",
"                        ....oooo                                ",
"                    ....XXXXXXXXXXXXXXXX....                    ",
"                    ....XXXXXXXXXXXXXXXX....                    ",
"                    ....XXXXXXXXXXXXXXXX....                    ",
"                    ....XXXXXXXXXXXXXXXX....                    ",
"                ....XXXXOOOOOOOOOOOOOOOOXXXX....                ",
"                ....XXXXOOOOOOOOOOOOOOOOXXXX....                ",
"                ....XXXXOOOOOOOOOOOOOOOOXXXX....                ",
"                ....XXXXOOOOOOOOOOOOOOOOXXXX....                ",
"            ....XXXX........................XXXX....            ",
"            ....XXXX........................XXXX....            ",
"            ....XXXX........................XXXX....            ",
"            ....XXXX........................XXXX....            ",
"            ........OOOOOOOOOOOOOOOOOOOOOOOOOOOO....            ",
"            ........OOOOOOOOOOOOOOOOOOOOOOOOOOOO....            ",
"            ........OOOOOOOOOOOOOOOOOOOOOOOOOOOO....            ",
"            ........OOOOOOOOOOOOOOOOOOOOOOOOOOOO....            ",
"            ....OOOO........OOOO........OOOO....OOOO....        ",
"            ....OOOO........OOOO........OOOO....OOOO....        ",
"            ....OOOO........OOOO........OOOO....OOOO....        ",
"            ....OOOO........OOOO........OOOO....OOOO....        ",
"            ....XXXX........XXXX........XXXX....XXXX....        ",
"            ....XXXX........XXXX........XXXX....XXXX....        ",
"            ....XXXX........XXXX........XXXX....XXXX....        ",
"            ....XXXX........XXXX........XXXX....XXXX....        ",
"            ....XXXX........++++........++++....XXXX....        ",
"            ....XXXX........++++........++++....XXXX....        ",
"            ....XXXX........++++........++++....XXXX....        ",
"            ....XXXX........++++........++++....XXXX....        ",
"            ................++++........++++........            ",
"            ................++++........++++........            ",
"            ................++++........++++........            ",
"            ................++++........++++........            ",
"        ....oooo....XXXX....................XXXX........        ",
"        ....oooo....XXXX....................XXXX........        ",
"        ....oooo....XXXX....................XXXX........        ",
"        ....oooo....XXXX....................XXXX........        ",
"        ....oooo........XXXXOOOOOOOOXXXX++++++++oooo....        ",
"        ....oooo........XXXXOOOOOOOOXXXX++++++++oooo....        ",
"        ....oooo........XXXXOOOOOOOOXXXX++++++++oooo....        ",
"        ....oooo........XXXXOOOOOOOOXXXX++++++++oooo....        ",
"        ....................XXXXXXXXXXXX++++oooo........        ",
"        ....................XXXXXXXXXXXX++++oooo........        ",
"        ....................XXXXXXXXXXXX++++oooo........        ",
"        ....................XXXXXXXXXXXX++++oooo........        ",
"                ....XXXX................XXXX........            ",
"                ....XXXX................XXXX........            ",
"                ....XXXX................XXXX........            ",
"                ....XXXX................XXXX........            ",
"                XXXXOOOOOOOO        ............                ",
"                XXXXOOOOOOOO        ............                ",
"                XXXXOOOOOOOO        ............                ",
"                XXXXOOOOOOOO        ............                ",
"                ............                                    ",
"                ............                                    ",
"                ............                                    ",
"                ............                                    "
};
