/* XPM */
static char *link_front_01649965381[] = {
/* columns rows colors chars-per-pixel */
"64 64 4 1 ",
"  c None",
". c #C84C0C",
"X c #FC9838",
"o c #80D010",
/* pixels */
"                    oooooooooooooooooooooooo                    ",
"                    oooooooooooooooooooooooo                    ",
"                    oooooooooooooooooooooooo                    ",
"                    oooooooooooooooooooooooo                    ",
"                oooooooooooooooooooooooooooooooo                ",
"                oooooooooooooooooooooooooooooooo                ",
"                oooooooooooooooooooooooooooooooo                ",
"                oooooooooooooooooooooooooooooooo                ",
"        XXXX    oooo........................oooo    XXXX        ",
"        XXXX    oooo........................oooo    XXXX        ",
"        XXXX    oooo........................oooo    XXXX        ",
"        XXXX    oooo........................oooo    XXXX        ",
"        XXXX    ................................    XXXX        ",
"        XXXX    ................................    XXXX        ",
"        XXXX    ................................    XXXX        ",
"        XXXX    ................................    XXXX        ",
"        XXXXXXXX....XXXXooooXXXXXXXXooooXXXX....XXXXXXXX        ",
"        XXXXXXXX....XXXXooooXXXXXXXXooooXXXX....XXXXXXXX        ",
"        XXXXXXXX....XXXXooooXXXXXXXXooooXXXX....XXXXXXXX        ",
"        XXXXXXXX....XXXXooooXXXXXXXXooooXXXX....XXXXXXXX        ",
"        XXXXXXXX....XXXX....XXXXXXXX....XXXX....XXXXXXXX        ",
"        XXXXXXXX....XXXX....XXXXXXXX....XXXX....XXXXXXXX        ",
"        XXXXXXXX....XXXX....XXXXXXXX....XXXX....XXXXXXXX        ",
"        XXXXXXXX....XXXX....XXXXXXXX....XXXX....XXXXXXXX        ",
"            XXXXXXXXXXXXXXXXXXXXXXXXXXXXXXXXXXXXXXXX....        ",
"            XXXXXXXXXXXXXXXXXXXXXXXXXXXXXXXXXXXXXXXX....        ",
"            XXXXXXXXXXXXXXXXXXXXXXXXXXXXXXXXXXXXXXXX....        ",
"            XXXXXXXXXXXXXXXXXXXXXXXXXXXXXXXXXXXXXXXX....        ",
"            ooooooooXXXXXXXX........XXXXXXXXoooooooo....        ",
"            ooooooooXXXXXXXX........XXXXXXXXoooooooo....        ",
"            ooooooooXXXXXXXX........XXXXXXXXoooooooo....        ",
"            ooooooooXXXXXXXX........XXXXXXXXoooooooo....        ",
"    ....................XXXXXXXXXXXXXXXXoooooooo............    ",
"    ....................XXXXXXXXXXXXXXXXoooooooo............    ",
"    ....................XXXXXXXXXXXXXXXXoooooooo............    ",
"    ....................XXXXXXXXXXXXXXXXoooooooo............    ",
"........XXXX................ooooooooooooooooooooXXXX........    ",
"........XXXX................ooooooooooooooooooooXXXX........    ",
"........XXXX................ooooooooooooooooooooXXXX........    ",
"........XXXX................ooooooooooooooooooooXXXX........    ",
"....XXXXXXXXXXXX........XXXX........ooooooooXXXXXXXXXXXX....    ",
"....XXXXXXXXXXXX........XXXX........ooooooooXXXXXXXXXXXX....    ",
"....XXXXXXXXXXXX........XXXX........ooooooooXXXXXXXXXXXX....    ",
"....XXXXXXXXXXXX........XXXX........ooooooooXXXXXXXXXXXX....    ",
"........XXXX............XXXXoooo................XXXXXXXXXXXX    ",
"........XXXX............XXXXoooo................XXXXXXXXXXXX    ",
"........XXXX............XXXXoooo................XXXXXXXXXXXX    ",
"........XXXX............XXXXoooo................XXXXXXXXXXXX    ",
"........XXXX............XXXX........ooooooooooooooooXXXX        ",
"........XXXX............XXXX........ooooooooooooooooXXXX        ",
"........XXXX............XXXX........ooooooooooooooooXXXX        ",
"........XXXX............XXXX........ooooooooooooooooXXXX        ",
"........................XXXXoooooooooooooooooooo                ",
"........................XXXXoooooooooooooooooooo                ",
"........................XXXXoooooooooooooooooooo                ",
"........................XXXXoooooooooooooooooooo                ",
"    XXXXXXXXXXXXXXXXXXXX....        ............                ",
"    XXXXXXXXXXXXXXXXXXXX....        ............                ",
"    XXXXXXXXXXXXXXXXXXXX....        ............                ",
"    XXXXXXXXXXXXXXXXXXXX....        ............                ",
"                ............                                    ",
"                ............                                    ",
"                ............                                    ",
"                ............                                    "
};
