/* XPM */
static char *pickup1649967650[] = {
/* columns rows colors chars-per-pixel */
"32 64 3 1 ",
"  c None",
". c #E79C21",
"X c white",
/* pixels */
"            XXXX....            ",
"            XXXX....            ",
"            XXXX....            ",
"            XXXX....            ",
"        XXXXXXXX........        ",
"        XXXXXXXX........        ",
"        XXXXXXXX........        ",
"        XXXXXXXX........        ",
"    XXXXXXXXXXXX............    ",
"    XXXXXXXXXXXX............    ",
"    XXXXXXXXXXXX............    ",
"    XXXXXXXXXXXX............    ",
"XXXX....XXXX....    ....    ....",
"XXXX....XXXX....    ....    ....",
"XXXX....XXXX....    ....    ....",
"XXXX....XXXX....    ....    ....",
"XXXXXXXX............    ........",
"XXXXXXXX............    ........",
"XXXXXXXX............    ........",
"XXXXXXXX............    ........",
"XXXXXXXX............    ........",
"XXXXXXXX............    ........",
"XXXXXXXX............    ........",
"XXXXXXXX............    ........",
"XXXXXXXX............    ........",
"XXXXXXXX............    ........",
"XXXXXXXX............    ........",
"XXXXXXXX............    ........",
"XXXXXXXX............    ........",
"XXXXXXXX............    ........",
"XXXXXXXX............    ........",
"XXXXXXXX............    ........",
"XXXXXXXX............    ........",
"XXXXXXXX............    ........",
"XXXXXXXX............    ........",
"XXXXXXXX............    ........",
"XXXXXXXX............    ........",
"XXXXXXXX............    ........",
"XXXXXXXX............    ........",
"XXXXXXXX............    ........",
"XXXXXXXX............    ........",
"XXXXXXXX............    ........",
"XXXXXXXX............    ........",
"XXXXXXXX............    ........",
"XXXX....XXXX........    ........",
"XXXX....XXXX........    ........",
"XXXX....XXXX........    ........",
"XXXX....XXXX........    ........",
"............XXXX    ....    ....",
"............XXXX    ....    ....",
"............XXXX    ....    ....",
"............XXXX    ....    ....",
"    ........................    ",
"    ........................    ",
"    ........................    ",
"    ........................    ",
"        ................        ",
"        ................        ",
"        ................        ",
"        ................        ",
"            ........            ",
"            ........            ",
"            ........            ",
"            ........            "
};
