/* XPM */
static char *result[] = {
/* columns rows colors chars-per-pixel */
"64 64 7 1 ",
"  c #282C28",
". c #404860",
"X c #505070",
"o c #489438",
"O c #98D478",
"+ c #606080",
"@ c #F8FCF8",
/* pixels */
"XXXXXXXXXXXXXXXX....++++++++++++++++++++++++....XXXXXXXX++++XXXX",
"XXXXXXXXXXXXXXXX....++++++++++++++++++++++++....XXXXXXXX++++XXXX",
"XXXXXXXXXXXXXXXX....++++++++++++++++++++++++....XXXXXXXX++++XXXX",
"XXXXXXXXXXXXXXXX....++++++++++++++++++++++++....XXXXXXXX++++XXXX",
"XXXXXXXXXXXX....++++++++++++        XXXXXXXX++++....XXXXXXXXXXXX",
"XXXXXXXXXXXX....++++++++++++        XXXXXXXX++++....XXXXXXXXXXXX",
"XXXXXXXXXXXX....++++++++++++        XXXXXXXX++++....XXXXXXXXXXXX",
"XXXXXXXXXXXX....++++++++++++        XXXXXXXX++++....XXXXXXXXXXXX",
"XXXXXXXX....++++XXXX++++    @@@@oooo    XXXXXXXX++++....XXXXXXXX",
"XXXXXXXX....++++XXXX++++    @@@@oooo    XXXXXXXX++++....XXXXXXXX",
"XXXXXXXX....++++XXXX++++    @@@@oooo    XXXXXXXX++++....XXXXXXXX",
"XXXXXXXX....++++XXXX++++    @@@@oooo    XXXXXXXX++++....XXXXXXXX",
"XXXX....++++XXXXXXXX    @@@@@@@@@@@@@@@@    XXXX++++++++....XXXX",
"XXXX....++++XXXXXXXX    @@@@@@@@@@@@@@@@    XXXX++++++++....XXXX",
"XXXX....++++XXXXXXXX    @@@@@@@@@@@@@@@@    XXXX++++++++....XXXX",
"XXXX....++++XXXXXXXX    @@@@@@@@@@@@@@@@    XXXX++++++++....XXXX",
"....++++++++XXXX    @@@@@@@@OOOOoooo@@@@        XXXXXXXX++++....",
"....++++++++XXXX    @@@@@@@@OOOOoooo@@@@        XXXXXXXX++++....",
"....++++++++XXXX    @@@@@@@@OOOOoooo@@@@        XXXXXXXX++++....",
"....++++++++XXXX    @@@@@@@@OOOOoooo@@@@        XXXXXXXX++++....",
"....++++XXXXXXXX    @@@@OOOO@@@@@@@@oooooooo    XXXXXXXX++++....",
"....++++XXXXXXXX    @@@@OOOO@@@@@@@@oooooooo    XXXXXXXX++++....",
"....++++XXXXXXXX    @@@@OOOO@@@@@@@@oooooooo    XXXXXXXX++++....",
"....++++XXXXXXXX    @@@@OOOO@@@@@@@@oooooooo    XXXXXXXX++++....",
"....++++XXXXXXXX    OOOOoooo@@@@@@@@ooooOOOO    XXXXXXXX++++....",
"....++++XXXXXXXX    OOOOoooo@@@@@@@@ooooOOOO    XXXXXXXX++++....",
"....++++XXXXXXXX    OOOOoooo@@@@@@@@ooooOOOO    XXXXXXXX++++....",
"....++++XXXXXXXX    OOOOoooo@@@@@@@@ooooOOOO    XXXXXXXX++++....",
"....++++XXXXXXXX    OOOOoooo@@@@@@@@ooooOOOO    XXXXXXXX++++....",
"....++++XXXXXXXX    OOOOoooo@@@@@@@@ooooOOOO    XXXXXXXX++++....",
"....++++XXXXXXXX    OOOOoooo@@@@@@@@ooooOOOO    XXXXXXXX++++....",
"....++++XXXXXXXX    OOOOoooo@@@@@@@@ooooOOOO    XXXXXXXX++++....",
"....++++XXXXXXXX    @@@@oooo@@@@OOOOooooOOOO    XXXXXXXX++++....",
"....++++XXXXXXXX    @@@@oooo@@@@OOOOooooOOOO    XXXXXXXX++++....",
"....++++XXXXXXXX    @@@@oooo@@@@OOOOooooOOOO    XXXXXXXX++++....",
"....++++XXXXXXXX    @@@@oooo@@@@OOOOooooOOOO    XXXXXXXX++++....",
"....++++XXXXXXXX    @@@@@@@@OOOOOOOOoooooooo    XXXXXXXX++++....",
"....++++XXXXXXXX    @@@@@@@@OOOOOOOOoooooooo    XXXXXXXX++++....",
"....++++XXXXXXXX    @@@@@@@@OOOOOOOOoooooooo    XXXXXXXX++++....",
"....++++XXXXXXXX    @@@@@@@@OOOOOOOOoooooooo    XXXXXXXX++++....",
"....++++XXXXXXXX    @@@@@@@@OOOOOOOOoooooooo    XXXXXXXX++++....",
"....++++XXXXXXXX    @@@@@@@@OOOOOOOOoooooooo    XXXXXXXX++++....",
"....++++XXXXXXXX    @@@@@@@@OOOOOOOOoooooooo    XXXXXXXX++++....",
"....++++XXXXXXXX    @@@@@@@@OOOOOOOOoooooooo    XXXXXXXX++++....",
"++++....++++++++    @@@@OOOOOOOOoooooooooooo    ++++++++....++++",
"++++....++++++++    @@@@OOOOOOOOoooooooooooo    ++++++++....++++",
"++++....++++++++    @@@@OOOOOOOOoooooooooooo    ++++++++....++++",
"++++....++++++++    @@@@OOOOOOOOoooooooooooo    ++++++++....++++",
"XXXX++++....++++XXXX    OOOOOOOOoooooooo    XXXX++++....++++XXXX",
"XXXX++++....++++XXXX    OOOOOOOOoooooooo    XXXX++++....++++XXXX",
"XXXX++++....++++XXXX    OOOOOOOOoooooooo    XXXX++++....++++XXXX",
"XXXX++++....++++XXXX    OOOOOOOOoooooooo    XXXX++++....++++XXXX",
"XXXX++++++++....++++++++    oooooooo    XXXX++++....++++++++XXXX",
"XXXX++++++++....++++++++    oooooooo    XXXX++++....++++++++XXXX",
"XXXX++++++++....++++++++    oooooooo    XXXX++++....++++++++XXXX",
"XXXX++++++++....++++++++    oooooooo    XXXX++++....++++++++XXXX",
"XXXXXXXXXXXX++++....XXXX++++        XXXX++++....++++XXXXXXXXXXXX",
"XXXXXXXXXXXX++++....XXXX++++        XXXX++++....++++XXXXXXXXXXXX",
"XXXXXXXXXXXX++++....XXXX++++        XXXX++++....++++XXXXXXXXXXXX",
"XXXXXXXXXXXX++++....XXXX++++        XXXX++++....++++XXXXXXXXXXXX",
"++++XXXXXXXX++++++++........................++++XXXXXXXXXXXXXXXX",
"++++XXXXXXXX++++++++........................++++XXXXXXXXXXXXXXXX",
"++++XXXXXXXX++++++++........................++++XXXXXXXXXXXXXXXX",
"++++XXXXXXXX++++++++........................++++XXXXXXXXXXXXXXXX"
};
