/* XPM */
static char *result[] = {
/* columns rows colors chars-per-pixel */
"64 64 6 1 ",
"  c #282C28",
". c #404860",
"X c #505070",
"o c #489438",
"O c #98D478",
"+ c #606080",
/* pixels */
"XXXXXXXXXXXXXXXX....++++++++++++++++++++++++....XXXXXXXX++++XXXX",
"XXXXXXXXXXXXXXXX....++++++++++++++++++++++++....XXXXXXXX++++XXXX",
"XXXXXXXXXXXXXXXX....++++++++++++++++++++++++....XXXXXXXX++++XXXX",
"XXXXXXXXXXXXXXXX....++++++++++++++++++++++++....XXXXXXXX++++XXXX",
"XXXXXXXXXXXX....++++++++++++        XXXXXXXX++++....XXXXXXXXXXXX",
"XXXXXXXXXXXX....++++++++++++        XXXXXXXX++++....XXXXXXXXXXXX",
"XXXXXXXXXXXX....++++++++++++        XXXXXXXX++++....XXXXXXXXXXXX",
"XXXXXXXXXXXX....++++++++++++        XXXXXXXX++++....XXXXXXXXXXXX",
"XXXXXXXX....++++XXXX++++    OOOOOOOO    XXXXXXXX++++....XXXXXXXX",
"XXXXXXXX....++++XXXX++++    OOOOOOOO    XXXXXXXX++++....XXXXXXXX",
"XXXXXXXX....++++XXXX++++    OOOOOOOO    XXXXXXXX++++....XXXXXXXX",
"XXXXXXXX....++++XXXX++++    OOOOOOOO    XXXXXXXX++++....XXXXXXXX",
"XXXX....++++XXXXXXXX    OOOOOOOOoooooooo    XXXX++++++++....XXXX",
"XXXX....++++XXXXXXXX    OOOOOOOOoooooooo    XXXX++++++++....XXXX",
"XXXX....++++XXXXXXXX    OOOOOOOOoooooooo    XXXX++++++++....XXXX",
"XXXX....++++XXXXXXXX    OOOOOOOOoooooooo    XXXX++++++++....XXXX",
"....++++++++XXXX    OOOOOOOOoooooooooooo        XXXXXXXX++++....",
"....++++++++XXXX    OOOOOOOOoooooooooooo        XXXXXXXX++++....",
"....++++++++XXXX    OOOOOOOOoooooooooooo        XXXXXXXX++++....",
"....++++++++XXXX    OOOOOOOOoooooooooooo        XXXXXXXX++++....",
"....++++XXXXXXXX    OOOOoooooooooooooooooooo    XXXXXXXX++++....",
"....++++XXXXXXXX    OOOOoooooooooooooooooooo    XXXXXXXX++++....",
"....++++XXXXXXXX    OOOOoooooooooooooooooooo    XXXXXXXX++++....",
"....++++XXXXXXXX    OOOOoooooooooooooooooooo    XXXXXXXX++++....",
"....++++XXXXXXXX    OOOOOOOOooooooooooooOOOO    XXXXXXXX++++....",
"....++++XXXXXXXX    OOOOOOOOooooooooooooOOOO    XXXXXXXX++++....",
"....++++XXXXXXXX    OOOOOOOOooooooooooooOOOO    XXXXXXXX++++....",
"....++++XXXXXXXX    OOOOOOOOooooooooooooOOOO    XXXXXXXX++++....",
"....++++XXXXXXXX    OOOOOOOOooooOOOOooooOOOO    XXXXXXXX++++....",
"....++++XXXXXXXX    OOOOOOOOooooOOOOooooOOOO    XXXXXXXX++++....",
"....++++XXXXXXXX    OOOOOOOOooooOOOOooooOOOO    XXXXXXXX++++....",
"....++++XXXXXXXX    OOOOOOOOooooOOOOooooOOOO    XXXXXXXX++++....",
"....++++XXXXXXXX    OOOOooooOOOOooooooooOOOO    XXXXXXXX++++....",
"....++++XXXXXXXX    OOOOooooOOOOooooooooOOOO    XXXXXXXX++++....",
"....++++XXXXXXXX    OOOOooooOOOOooooooooOOOO    XXXXXXXX++++....",
"....++++XXXXXXXX    OOOOooooOOOOooooooooOOOO    XXXXXXXX++++....",
"....++++XXXXXXXX    OOOOoooooooooooooooooooo    XXXXXXXX++++....",
"....++++XXXXXXXX    OOOOoooooooooooooooooooo    XXXXXXXX++++....",
"....++++XXXXXXXX    OOOOoooooooooooooooooooo    XXXXXXXX++++....",
"....++++XXXXXXXX    OOOOoooooooooooooooooooo    XXXXXXXX++++....",
"....++++XXXXXXXX    OOOOOOOOooooooooOOOOoooo    XXXXXXXX++++....",
"....++++XXXXXXXX    OOOOOOOOooooooooOOOOoooo    XXXXXXXX++++....",
"....++++XXXXXXXX    OOOOOOOOooooooooOOOOoooo    XXXXXXXX++++....",
"....++++XXXXXXXX    OOOOOOOOooooooooOOOOoooo    XXXXXXXX++++....",
"++++....++++++++    ooooooooooooOOOOoooooooo    ++++++++....++++",
"++++....++++++++    ooooooooooooOOOOoooooooo    ++++++++....++++",
"++++....++++++++    ooooooooooooOOOOoooooooo    ++++++++....++++",
"++++....++++++++    ooooooooooooOOOOoooooooo    ++++++++....++++",
"XXXX++++....++++XXXX    ooooOOOOoooooooo    XXXX++++....++++XXXX",
"XXXX++++....++++XXXX    ooooOOOOoooooooo    XXXX++++....++++XXXX",
"XXXX++++....++++XXXX    ooooOOOOoooooooo    XXXX++++....++++XXXX",
"XXXX++++....++++XXXX    ooooOOOOoooooooo    XXXX++++....++++XXXX",
"XXXX++++++++....++++++++    oooooooo    XXXX++++....++++++++XXXX",
"XXXX++++++++....++++++++    oooooooo    XXXX++++....++++++++XXXX",
"XXXX++++++++....++++++++    oooooooo    XXXX++++....++++++++XXXX",
"XXXX++++++++....++++++++    oooooooo    XXXX++++....++++++++XXXX",
"XXXXXXXXXXXX++++....XXXX++++        XXXX++++....++++XXXXXXXXXXXX",
"XXXXXXXXXXXX++++....XXXX++++        XXXX++++....++++XXXXXXXXXXXX",
"XXXXXXXXXXXX++++....XXXX++++        XXXX++++....++++XXXXXXXXXXXX",
"XXXXXXXXXXXX++++....XXXX++++        XXXX++++....++++XXXXXXXXXXXX",
"++++XXXXXXXX++++++++........................++++XXXXXXXXXXXXXXXX",
"++++XXXXXXXX++++++++........................++++XXXXXXXXXXXXXXXX",
"++++XXXXXXXX++++++++........................++++XXXXXXXXXXXXXXXX",
"++++XXXXXXXX++++++++........................++++XXXXXXXXXXXXXXXX"
};
