/* XPM */
static char *result[] = {
/* columns rows colors chars-per-pixel */
"64 64 7 1 ",
"  c #282C28",
". c #404860",
"X c #505070",
"o c #489438",
"O c #98D478",
"+ c #606080",
"@ c #F8FCF8",
/* pixels */
"XXXXXXXXXXXXXXXX....++++++++++++++++++++++++....XXXXXXXX++++XXXX",
"XXXXXXXXXXXXXXXX....++++++++++++++++++++++++....XXXXXXXX++++XXXX",
"XXXXXXXXXXXXXXXX....++++++++++++++++++++++++....XXXXXXXX++++XXXX",
"XXXXXXXXXXXXXXXX....++++++++++++++++++++++++....XXXXXXXX++++XXXX",
"XXXXXXXXXXXX....++++++++++++        XXXXXXXX++++....XXXXXXXXXXXX",
"XXXXXXXXXXXX....++++++++++++        XXXXXXXX++++....XXXXXXXXXXXX",
"XXXXXXXXXXXX....++++++++++++        XXXXXXXX++++....XXXXXXXXXXXX",
"XXXXXXXXXXXX....++++++++++++        XXXXXXXX++++....XXXXXXXXXXXX",
"XXXXXXXX....++++XXXX++++    OOOOoooo    XXXXXXXX++++....XXXXXXXX",
"XXXXXXXX....++++XXXX++++    OOOOoooo    XXXXXXXX++++....XXXXXXXX",
"XXXXXXXX....++++XXXX++++    OOOOoooo    XXXXXXXX++++....XXXXXXXX",
"XXXXXXXX....++++XXXX++++    OOOOoooo    XXXXXXXX++++....XXXXXXXX",
"XXXX....++++XXXXXXXX    OOOOooooooooOOOO    XXXX++++++++....XXXX",
"XXXX....++++XXXXXXXX    OOOOooooooooOOOO    XXXX++++++++....XXXX",
"XXXX....++++XXXXXXXX    OOOOooooooooOOOO    XXXX++++++++....XXXX",
"XXXX....++++XXXXXXXX    OOOOooooooooOOOO    XXXX++++++++....XXXX",
"....++++++++XXXX    OOOOooooooooooooOOOO        XXXXXXXX++++....",
"....++++++++XXXX    OOOOooooooooooooOOOO        XXXXXXXX++++....",
"....++++++++XXXX    OOOOooooooooooooOOOO        XXXXXXXX++++....",
"....++++++++XXXX    OOOOooooooooooooOOOO        XXXXXXXX++++....",
"....++++XXXXXXXX    OOOOooooooooOOOOoooo@@@@    XXXXXXXX++++....",
"....++++XXXXXXXX    OOOOooooooooOOOOoooo@@@@    XXXXXXXX++++....",
"....++++XXXXXXXX    OOOOooooooooOOOOoooo@@@@    XXXXXXXX++++....",
"....++++XXXXXXXX    OOOOooooooooOOOOoooo@@@@    XXXXXXXX++++....",
"....++++XXXXXXXX    ooooooooOOOOOOOOoooo@@@@    XXXXXXXX++++....",
"....++++XXXXXXXX    ooooooooOOOOOOOOoooo@@@@    XXXXXXXX++++....",
"....++++XXXXXXXX    ooooooooOOOOOOOOoooo@@@@    XXXXXXXX++++....",
"....++++XXXXXXXX    ooooooooOOOOOOOOoooo@@@@    XXXXXXXX++++....",
"....++++XXXXXXXX    ooooooooOOOOoooooooo@@@@    XXXXXXXX++++....",
"....++++XXXXXXXX    ooooooooOOOOoooooooo@@@@    XXXXXXXX++++....",
"....++++XXXXXXXX    ooooooooOOOOoooooooo@@@@    XXXXXXXX++++....",
"....++++XXXXXXXX    ooooooooOOOOoooooooo@@@@    XXXXXXXX++++....",
"....++++XXXXXXXX    oooooooooooo@@@@oooo@@@@    XXXXXXXX++++....",
"....++++XXXXXXXX    oooooooooooo@@@@oooo@@@@    XXXXXXXX++++....",
"....++++XXXXXXXX    oooooooooooo@@@@oooo@@@@    XXXXXXXX++++....",
"....++++XXXXXXXX    oooooooooooo@@@@oooo@@@@    XXXXXXXX++++....",
"....++++XXXXXXXX    oooooooo@@@@OOOOoooo@@@@    XXXXXXXX++++....",
"....++++XXXXXXXX    oooooooo@@@@OOOOoooo@@@@    XXXXXXXX++++....",
"....++++XXXXXXXX    oooooooo@@@@OOOOoooo@@@@    XXXXXXXX++++....",
"....++++XXXXXXXX    oooooooo@@@@OOOOoooo@@@@    XXXXXXXX++++....",
"....++++XXXXXXXX    ooooooooOOOOoooo@@@@@@@@    XXXXXXXX++++....",
"....++++XXXXXXXX    ooooooooOOOOoooo@@@@@@@@    XXXXXXXX++++....",
"....++++XXXXXXXX    ooooooooOOOOoooo@@@@@@@@    XXXXXXXX++++....",
"....++++XXXXXXXX    ooooooooOOOOoooo@@@@@@@@    XXXXXXXX++++....",
"++++....++++++++    ooooOOOOoooooooo@@@@@@@@    ++++++++....++++",
"++++....++++++++    ooooOOOOoooooooo@@@@@@@@    ++++++++....++++",
"++++....++++++++    ooooOOOOoooooooo@@@@@@@@    ++++++++....++++",
"++++....++++++++    ooooOOOOoooooooo@@@@@@@@    ++++++++....++++",
"XXXX++++....++++XXXX    @@@@@@@@@@@@@@@@    XXXX++++....++++XXXX",
"XXXX++++....++++XXXX    @@@@@@@@@@@@@@@@    XXXX++++....++++XXXX",
"XXXX++++....++++XXXX    @@@@@@@@@@@@@@@@    XXXX++++....++++XXXX",
"XXXX++++....++++XXXX    @@@@@@@@@@@@@@@@    XXXX++++....++++XXXX",
"XXXX++++++++....++++++++    @@@@@@@@    XXXX++++....++++++++XXXX",
"XXXX++++++++....++++++++    @@@@@@@@    XXXX++++....++++++++XXXX",
"XXXX++++++++....++++++++    @@@@@@@@    XXXX++++....++++++++XXXX",
"XXXX++++++++....++++++++    @@@@@@@@    XXXX++++....++++++++XXXX",
"XXXXXXXXXXXX++++....XXXX++++        XXXX++++....++++XXXXXXXXXXXX",
"XXXXXXXXXXXX++++....XXXX++++        XXXX++++....++++XXXXXXXXXXXX",
"XXXXXXXXXXXX++++....XXXX++++        XXXX++++....++++XXXXXXXXXXXX",
"XXXXXXXXXXXX++++....XXXX++++        XXXX++++....++++XXXXXXXXXXXX",
"++++XXXXXXXX++++++++........................++++XXXXXXXXXXXXXXXX",
"++++XXXXXXXX++++++++........................++++XXXXXXXXXXXXXXXX",
"++++XXXXXXXX++++++++........................++++XXXXXXXXXXXXXXXX",
"++++XXXXXXXX++++++++........................++++XXXXXXXXXXXXXXXX"
};
