/* XPM */
static char *result[] = {
/* columns rows colors chars-per-pixel */
"64 64 6 1 ",
"  c #404860",
". c #505070",
"X c #0000A8",
"o c #606080",
"O c #5C94FC",
"+ c gray99",
/* pixels */
"................    oooo++++oooooooo++++oooo    ........oooo....",
"................    oooo++++oooooooo++++oooo    ........oooo....",
"................    oooo++++oooooooo++++oooo    ........oooo....",
"................    oooo++++oooooooo++++oooo    ........oooo....",
"............    oooooooo++++........++++....oooo    ............",
"............    oooooooo++++........++++....oooo    ............",
"............    oooooooo++++........++++....oooo    ............",
"............    oooooooo++++........++++....oooo    ............",
"........    oooo....oooo++++........++++........oooo    ........",
"........    oooo....oooo++++........++++........oooo    ........",
"........    oooo....oooo++++........++++........oooo    ........",
"........    oooo....oooo++++........++++........oooo    ........",
"....    oooo............++++........++++........oooooooo    ....",
"....    oooo............++++........++++........oooooooo    ....",
"....    oooo............++++........++++........oooooooo    ....",
"....    oooo............++++........++++........oooooooo    ....",
"    oooooooo....OOOOXXXXXXXXXXXXXXXXXXXXXXXXOOOO........oooo    ",
"    oooooooo....OOOOXXXXXXXXXXXXXXXXXXXXXXXXOOOO........oooo    ",
"    oooooooo....OOOOXXXXXXXXXXXXXXXXXXXXXXXXOOOO........oooo    ",
"    oooooooo....OOOOXXXXXXXXXXXXXXXXXXXXXXXXOOOO........oooo    ",
"    oooo........XXXXOOOOXXXXXXXXXXXXXXXXOOOOXXXX........oooo    ",
"    oooo........XXXXOOOOXXXXXXXXXXXXXXXXOOOOXXXX........oooo    ",
"    oooo........XXXXOOOOXXXXXXXXXXXXXXXXOOOOXXXX........oooo    ",
"    oooo........XXXXOOOOXXXXXXXXXXXXXXXXOOOOXXXX........oooo    ",
"++++++++++++++++XXXXXXXXOOOOOOOOOOOOOOOOXXXXXXXX++++++++++++++++",
"++++++++++++++++XXXXXXXXOOOOOOOOOOOOOOOOXXXXXXXX++++++++++++++++",
"++++++++++++++++XXXXXXXXOOOOOOOOOOOOOOOOXXXXXXXX++++++++++++++++",
"++++++++++++++++XXXXXXXXOOOOOOOOOOOOOOOOXXXXXXXX++++++++++++++++",
"    oooo........XXXXXXXXOOOOOOOOOOOOOOOOXXXXXXXX........oooo    ",
"    oooo........XXXXXXXXOOOOOOOOOOOOOOOOXXXXXXXX........oooo    ",
"    oooo........XXXXXXXXOOOOOOOOOOOOOOOOXXXXXXXX........oooo    ",
"    oooo........XXXXXXXXOOOOOOOOOOOOOOOOXXXXXXXX........oooo    ",
"    oooo........XXXXXXXXOOOOOOOOOOOOOOOOXXXXXXXX........oooo    ",
"    oooo........XXXXXXXXOOOOOOOOOOOOOOOOXXXXXXXX........oooo    ",
"    oooo........XXXXXXXXOOOOOOOOOOOOOOOOXXXXXXXX........oooo    ",
"    oooo........XXXXXXXXOOOOOOOOOOOOOOOOXXXXXXXX........oooo    ",
"++++++++++++++++XXXXXXXXOOOOOOOOOOOOOOOOXXXXXXXX++++++++++++++++",
"++++++++++++++++XXXXXXXXOOOOOOOOOOOOOOOOXXXXXXXX++++++++++++++++",
"++++++++++++++++XXXXXXXXOOOOOOOOOOOOOOOOXXXXXXXX++++++++++++++++",
"++++++++++++++++XXXXXXXXOOOOOOOOOOOOOOOOXXXXXXXX++++++++++++++++",
"    oooo........XXXXOOOOXXXXXXXXXXXXXXXXOOOOXXXX........oooo    ",
"    oooo........XXXXOOOOXXXXXXXXXXXXXXXXOOOOXXXX........oooo    ",
"    oooo........XXXXOOOOXXXXXXXXXXXXXXXXOOOOXXXX........oooo    ",
"    oooo........XXXXOOOOXXXXXXXXXXXXXXXXOOOOXXXX........oooo    ",
"oooo    ooooooooOOOOXXXXXXXXXXXXXXXXXXXXXXXXOOOOoooooooo    oooo",
"oooo    ooooooooOOOOXXXXXXXXXXXXXXXXXXXXXXXXOOOOoooooooo    oooo",
"oooo    ooooooooOOOOXXXXXXXXXXXXXXXXXXXXXXXXOOOOoooooooo    oooo",
"oooo    ooooooooOOOOXXXXXXXXXXXXXXXXXXXXXXXXOOOOoooooooo    oooo",
"....oooo    oooo........++++........++++........oooo    oooo....",
"....oooo    oooo........++++........++++........oooo    oooo....",
"....oooo    oooo........++++........++++........oooo    oooo....",
"....oooo    oooo........++++........++++........oooo    oooo....",
"....oooooooo    oooooooo++++........++++....oooo    oooooooo....",
"....oooooooo    oooooooo++++........++++....oooo    oooooooo....",
"....oooooooo    oooooooo++++........++++....oooo    oooooooo....",
"....oooooooo    oooooooo++++........++++....oooo    oooooooo....",
"............oooo    ....++++oooooooo++++oooo    oooo............",
"............oooo    ....++++oooooooo++++oooo    oooo............",
"............oooo    ....++++oooooooo++++oooo    oooo............",
"............oooo    ....++++oooooooo++++oooo    oooo............",
"oooo........oooooooo    ++++        ++++    oooo................",
"oooo........oooooooo    ++++        ++++    oooo................",
"oooo........oooooooo    ++++        ++++    oooo................",
"oooo........oooooooo    ++++        ++++    oooo................"
};
