/* XPM */
static char *result[] = {
/* columns rows colors chars-per-pixel */
"16 16 5 1 ",
"  c gray19",
". c #2F5F4C",
"X c #585858",
"o c #409070",
"O c #A0A0A0",
/* pixels */
"                ",
" XOOXXXOOXXXOOX ",
" OX  XOXXOX  XO ",
" O  XOX  XOX  O ",
" X XOX XX XOX X ",
" XXOX XOOX XOXX ",
" XOX XOooOX XOX ",
" OX XOo..oOX XO ",
" OX XOo..oOX XO ",
" XOX XOooOX XOX ",
" XXOX XOOX XOXX ",
" X XOX XX XOX X ",
" O  XOX  XOX  O ",
" OX  XOXXOX  XO ",
" XOOXXXOOXXXOOX ",
"                "
};
