/* XPM */
static char *result[] = {
/* columns rows colors chars-per-pixel */
"64 64 6 1 ",
"  c gray19",
". c #2F5F4C",
"X c #585858",
"o c #409070",
"O c #58C8A0",
"+ c #A0A0A0",
/* pixels */
"                                                                ",
"                                                                ",
"                                                                ",
"                                                                ",
"    XXXX++++++++XXXXXXXXXXXX++++++++XXXXXXXXXXXX++++++++XXXX    ",
"    XXXX++++++++XXXXXXXXXXXX++++++++XXXXXXXXXXXX++++++++XXXX    ",
"    XXXX++++++++XXXXXXXXXXXX++++++++XXXXXXXXXXXX++++++++XXXX    ",
"    XXXX++++++++XXXXXXXXXXXX++++++++XXXXXXXXXXXX++++++++XXXX    ",
"    ++++XXXX        XXXX++++oooooooo++++XXXX        XXXX++++    ",
"    ++++XXXX        XXXX++++oooooooo++++XXXX        XXXX++++    ",
"    ++++XXXX        XXXX++++oooooooo++++XXXX        XXXX++++    ",
"    ++++XXXX        XXXX++++oooooooo++++XXXX        XXXX++++    ",
"    ++++        XXXX++++oooo........oooo++++XXXX        ++++    ",
"    ++++        XXXX++++oooo........oooo++++XXXX        ++++    ",
"    ++++        XXXX++++oooo........oooo++++XXXX        ++++    ",
"    ++++        XXXX++++oooo........oooo++++XXXX        ++++    ",
"    XXXX    XXXX++++oooo....oooooooo....oooo++++XXXX    XXXX    ",
"    XXXX    XXXX++++oooo....oooooooo....oooo++++XXXX    XXXX    ",
"    XXXX    XXXX++++oooo....oooooooo....oooo++++XXXX    XXXX    ",
"    XXXX    XXXX++++oooo....oooooooo....oooo++++XXXX    XXXX    ",
"    XXXXXXXX++++oooo....ooooOOOOOOOOoooo....oooo++++XXXXXXXX    ",
"    XXXXXXXX++++oooo....ooooOOOOOOOOoooo....oooo++++XXXXXXXX    ",
"    XXXXXXXX++++oooo....ooooOOOOOOOOoooo....oooo++++XXXXXXXX    ",
"    XXXXXXXX++++oooo....ooooOOOOOOOOoooo....oooo++++XXXXXXXX    ",
"    XXXX++++oooo....ooooOOOOooooooooOOOOoooo....oooo++++XXXX    ",
"    XXXX++++oooo....ooooOOOOooooooooOOOOoooo....oooo++++XXXX    ",
"    XXXX++++oooo....ooooOOOOooooooooOOOOoooo....oooo++++XXXX    ",
"    XXXX++++oooo....ooooOOOOooooooooOOOOoooo....oooo++++XXXX    ",
"    ++++oooo....ooooOOOOoooo........ooooOOOOoooo....oooo++++    ",
"    ++++oooo....ooooOOOOoooo........ooooOOOOoooo....oooo++++    ",
"    ++++oooo....ooooOOOOoooo........ooooOOOOoooo....oooo++++    ",
"    ++++oooo....ooooOOOOoooo........ooooOOOOoooo....oooo++++    ",
"    ++++oooo....ooooOOOOoooo........ooooOOOOoooo....oooo++++    ",
"    ++++oooo....ooooOOOOoooo........ooooOOOOoooo....oooo++++    ",
"    ++++oooo....ooooOOOOoooo........ooooOOOOoooo....oooo++++    ",
"    ++++oooo....ooooOOOOoooo........ooooOOOOoooo....oooo++++    ",
"    XXXX++++oooo....ooooOOOOooooooooOOOOoooo....oooo++++XXXX    ",
"    XXXX++++oooo....ooooOOOOooooooooOOOOoooo....oooo++++XXXX    ",
"    XXXX++++oooo....ooooOOOOooooooooOOOOoooo....oooo++++XXXX    ",
"    XXXX++++oooo....ooooOOOOooooooooOOOOoooo....oooo++++XXXX    ",
"    XXXXXXXX++++oooo....ooooOOOOOOOOoooo....oooo++++XXXXXXXX    ",
"    XXXXXXXX++++oooo....ooooOOOOOOOOoooo....oooo++++XXXXXXXX    ",
"    XXXXXXXX++++oooo....ooooOOOOOOOOoooo....oooo++++XXXXXXXX    ",
"    XXXXXXXX++++oooo....ooooOOOOOOOOoooo....oooo++++XXXXXXXX    ",
"    XXXX    XXXX++++oooo....oooooooo....oooo++++XXXX    XXXX    ",
"    XXXX    XXXX++++oooo....oooooooo....oooo++++XXXX    XXXX    ",
"    XXXX    XXXX++++oooo....oooooooo....oooo++++XXXX    XXXX    ",
"    XXXX    XXXX++++oooo....oooooooo....oooo++++XXXX    XXXX    ",
"    ++++        XXXX++++oooo........oooo++++XXXX        ++++    ",
"    ++++        XXXX++++oooo........oooo++++XXXX        ++++    ",
"    ++++        XXXX++++oooo........oooo++++XXXX        ++++    ",
"    ++++        XXXX++++oooo........oooo++++XXXX        ++++    ",
"    ++++XXXX        XXXX++++oooooooo++++XXXX        XXXX++++    ",
"    ++++XXXX        XXXX++++oooooooo++++XXXX        XXXX++++    ",
"    ++++XXXX        XXXX++++oooooooo++++XXXX        XXXX++++    ",
"    ++++XXXX        XXXX++++oooooooo++++XXXX        XXXX++++    ",
"    XXXX++++++++XXXXXXXXXXXX++++++++XXXXXXXXXXXX++++++++XXXX    ",
"    XXXX++++++++XXXXXXXXXXXX++++++++XXXXXXXXXXXX++++++++XXXX    ",
"    XXXX++++++++XXXXXXXXXXXX++++++++XXXXXXXXXXXX++++++++XXXX    ",
"    XXXX++++++++XXXXXXXXXXXX++++++++XXXXXXXXXXXX++++++++XXXX    ",
"                                                                ",
"                                                                ",
"                                                                ",
"                                                                "
};
