/* XPM */
static char *result[] = {
/* columns rows colors chars-per-pixel */
"64 64 5 1 ",
"  c gray19",
". c #2F5F4C",
"X c #585858",
"o c #409070",
"O c #A0A0A0",
/* pixels */
"                                                                ",
"                                                                ",
"                                                                ",
"                                                                ",
"    XXXXOOOOOOOOXXXXXXXXXXXXOOOOOOOOXXXXXXXXXXXXOOOOOOOOXXXX    ",
"    XXXXOOOOOOOOXXXXXXXXXXXXOOOOOOOOXXXXXXXXXXXXOOOOOOOOXXXX    ",
"    XXXXOOOOOOOOXXXXXXXXXXXXOOOOOOOOXXXXXXXXXXXXOOOOOOOOXXXX    ",
"    XXXXOOOOOOOOXXXXXXXXXXXXOOOOOOOOXXXXXXXXXXXXOOOOOOOOXXXX    ",
"    OOOOXXXX        XXXXOOOOXXXXXXXXOOOOXXXX        XXXXOOOO    ",
"    OOOOXXXX        XXXXOOOOXXXXXXXXOOOOXXXX        XXXXOOOO    ",
"    OOOOXXXX        XXXXOOOOXXXXXXXXOOOOXXXX        XXXXOOOO    ",
"    OOOOXXXX        XXXXOOOOXXXXXXXXOOOOXXXX        XXXXOOOO    ",
"    OOOO        XXXXOOOOXXXX        XXXXOOOOXXXX        OOOO    ",
"    OOOO        XXXXOOOOXXXX        XXXXOOOOXXXX        OOOO    ",
"    OOOO        XXXXOOOOXXXX        XXXXOOOOXXXX        OOOO    ",
"    OOOO        XXXXOOOOXXXX        XXXXOOOOXXXX        OOOO    ",
"    XXXX    XXXXOOOOXXXX    XXXXXXXX    XXXXOOOOXXXX    XXXX    ",
"    XXXX    XXXXOOOOXXXX    XXXXXXXX    XXXXOOOOXXXX    XXXX    ",
"    XXXX    XXXXOOOOXXXX    XXXXXXXX    XXXXOOOOXXXX    XXXX    ",
"    XXXX    XXXXOOOOXXXX    XXXXXXXX    XXXXOOOOXXXX    XXXX    ",
"    XXXXXXXXOOOOXXXX    XXXXOOOOOOOOXXXX    XXXXOOOOXXXXXXXX    ",
"    XXXXXXXXOOOOXXXX    XXXXOOOOOOOOXXXX    XXXXOOOOXXXXXXXX    ",
"    XXXXXXXXOOOOXXXX    XXXXOOOOOOOOXXXX    XXXXOOOOXXXXXXXX    ",
"    XXXXXXXXOOOOXXXX    XXXXOOOOOOOOXXXX    XXXXOOOOXXXXXXXX    ",
"    XXXXOOOOXXXX    XXXXOOOOooooooooOOOOXXXX    XXXXOOOOXXXX    ",
"    XXXXOOOOXXXX    XXXXOOOOooooooooOOOOXXXX    XXXXOOOOXXXX    ",
"    XXXXOOOOXXXX    XXXXOOOOooooooooOOOOXXXX    XXXXOOOOXXXX    ",
"    XXXXOOOOXXXX    XXXXOOOOooooooooOOOOXXXX    XXXXOOOOXXXX    ",
"    OOOOXXXX    XXXXOOOOoooo........ooooOOOOXXXX    XXXXOOOO    ",
"    OOOOXXXX    XXXXOOOOoooo........ooooOOOOXXXX    XXXXOOOO    ",
"    OOOOXXXX    XXXXOOOOoooo........ooooOOOOXXXX    XXXXOOOO    ",
"    OOOOXXXX    XXXXOOOOoooo........ooooOOOOXXXX    XXXXOOOO    ",
"    OOOOXXXX    XXXXOOOOoooo........ooooOOOOXXXX    XXXXOOOO    ",
"    OOOOXXXX    XXXXOOOOoooo........ooooOOOOXXXX    XXXXOOOO    ",
"    OOOOXXXX    XXXXOOOOoooo........ooooOOOOXXXX    XXXXOOOO    ",
"    OOOOXXXX    XXXXOOOOoooo........ooooOOOOXXXX    XXXXOOOO    ",
"    XXXXOOOOXXXX    XXXXOOOOooooooooOOOOXXXX    XXXXOOOOXXXX    ",
"    XXXXOOOOXXXX    XXXXOOOOooooooooOOOOXXXX    XXXXOOOOXXXX    ",
"    XXXXOOOOXXXX    XXXXOOOOooooooooOOOOXXXX    XXXXOOOOXXXX    ",
"    XXXXOOOOXXXX    XXXXOOOOooooooooOOOOXXXX    XXXXOOOOXXXX    ",
"    XXXXXXXXOOOOXXXX    XXXXOOOOOOOOXXXX    XXXXOOOOXXXXXXXX    ",
"    XXXXXXXXOOOOXXXX    XXXXOOOOOOOOXXXX    XXXXOOOOXXXXXXXX    ",
"    XXXXXXXXOOOOXXXX    XXXXOOOOOOOOXXXX    XXXXOOOOXXXXXXXX    ",
"    XXXXXXXXOOOOXXXX    XXXXOOOOOOOOXXXX    XXXXOOOOXXXXXXXX    ",
"    XXXX    XXXXOOOOXXXX    XXXXXXXX    XXXXOOOOXXXX    XXXX    ",
"    XXXX    XXXXOOOOXXXX    XXXXXXXX    XXXXOOOOXXXX    XXXX    ",
"    XXXX    XXXXOOOOXXXX    XXXXXXXX    XXXXOOOOXXXX    XXXX    ",
"    XXXX    XXXXOOOOXXXX    XXXXXXXX    XXXXOOOOXXXX    XXXX    ",
"    OOOO        XXXXOOOOXXXX        XXXXOOOOXXXX        OOOO    ",
"    OOOO        XXXXOOOOXXXX        XXXXOOOOXXXX        OOOO    ",
"    OOOO        XXXXOOOOXXXX        XXXXOOOOXXXX        OOOO    ",
"    OOOO        XXXXOOOOXXXX        XXXXOOOOXXXX        OOOO    ",
"    OOOOXXXX        XXXXOOOOXXXXXXXXOOOOXXXX        XXXXOOOO    ",
"    OOOOXXXX        XXXXOOOOXXXXXXXXOOOOXXXX        XXXXOOOO    ",
"    OOOOXXXX        XXXXOOOOXXXXXXXXOOOOXXXX        XXXXOOOO    ",
"    OOOOXXXX        XXXXOOOOXXXXXXXXOOOOXXXX        XXXXOOOO    ",
"    XXXXOOOOOOOOXXXXXXXXXXXXOOOOOOOOXXXXXXXXXXXXOOOOOOOOXXXX    ",
"    XXXXOOOOOOOOXXXXXXXXXXXXOOOOOOOOXXXXXXXXXXXXOOOOOOOOXXXX    ",
"    XXXXOOOOOOOOXXXXXXXXXXXXOOOOOOOOXXXXXXXXXXXXOOOOOOOOXXXX    ",
"    XXXXOOOOOOOOXXXXXXXXXXXXOOOOOOOOXXXXXXXXXXXXOOOOOOOOXXXX    ",
"                                                                ",
"                                                                ",
"                                                                ",
"                                                                "
};
