/* XPM */
static char *result[] = {
/* columns rows colors chars-per-pixel */
"16 16 6 1 ",
"  c gray19",
". c #2F5F4C",
"X c #585858",
"o c #409070",
"O c #58C8A0",
"+ c #A0A0A0",
/* pixels */
"                ",
" X++XXXOOXXX++X ",
" +X  XOooOX  X+ ",
" +  XOo..oOX  + ",
" X XOo.oo.oOX X ",
" XXOo.oOOo.oOXX ",
" XOo.oOooOo.oOX ",
" Oo.oOo..oOo.oO ",
" Oo.oOo..oOo.oO ",
" XOo.oOooOo.oOX ",
" XXOo.oOOo.oOXX ",
" X XOo.oo.oOX X ",
" +  XOo..oOX  + ",
" +X  XOooOX  X+ ",
" X++XXXOOXXX++X ",
"                "
};
