/* XPM */
static char *result[] = {
/* columns rows colors chars-per-pixel */
"64 64 6 1 ",
"  c gray19",
". c #2F5F4C",
"X c #585858",
"o c #409070",
"O c #58C8A0",
"+ c #A0A0A0",
/* pixels */
"                                                                ",
"                                                                ",
"                                                                ",
"                                                                ",
"    XXXX++++++++XXXXXXXXXXXX++++++++XXXXXXXXXXXX++++++++XXXX    ",
"    XXXX++++++++XXXXXXXXXXXX++++++++XXXXXXXXXXXX++++++++XXXX    ",
"    XXXX++++++++XXXXXXXXXXXX++++++++XXXXXXXXXXXX++++++++XXXX    ",
"    XXXX++++++++XXXXXXXXXXXX++++++++XXXXXXXXXXXX++++++++XXXX    ",
"    ++++XXXX        XXXX++++XXXXXXXX++++XXXX        XXXX++++    ",
"    ++++XXXX        XXXX++++XXXXXXXX++++XXXX        XXXX++++    ",
"    ++++XXXX        XXXX++++XXXXXXXX++++XXXX        XXXX++++    ",
"    ++++XXXX        XXXX++++XXXXXXXX++++XXXX        XXXX++++    ",
"    ++++        XXXX++++XXXX        XXXX++++XXXX        ++++    ",
"    ++++        XXXX++++XXXX        XXXX++++XXXX        ++++    ",
"    ++++        XXXX++++XXXX        XXXX++++XXXX        ++++    ",
"    ++++        XXXX++++XXXX        XXXX++++XXXX        ++++    ",
"    XXXX    XXXX++++XXXX    oooooooo    XXXX++++XXXX    XXXX    ",
"    XXXX    XXXX++++XXXX    oooooooo    XXXX++++XXXX    XXXX    ",
"    XXXX    XXXX++++XXXX    oooooooo    XXXX++++XXXX    XXXX    ",
"    XXXX    XXXX++++XXXX    oooooooo    XXXX++++XXXX    XXXX    ",
"    XXXXXXXX++++XXXX    ooooOOOOOOOOoooo    XXXX++++XXXXXXXX    ",
"    XXXXXXXX++++XXXX    ooooOOOOOOOOoooo    XXXX++++XXXXXXXX    ",
"    XXXXXXXX++++XXXX    ooooOOOOOOOOoooo    XXXX++++XXXXXXXX    ",
"    XXXXXXXX++++XXXX    ooooOOOOOOOOoooo    XXXX++++XXXXXXXX    ",
"    XXXX++++XXXX    ooooOOOOooooooooOOOOoooo    XXXX++++XXXX    ",
"    XXXX++++XXXX    ooooOOOOooooooooOOOOoooo    XXXX++++XXXX    ",
"    XXXX++++XXXX    ooooOOOOooooooooOOOOoooo    XXXX++++XXXX    ",
"    XXXX++++XXXX    ooooOOOOooooooooOOOOoooo    XXXX++++XXXX    ",
"    ++++XXXX    ooooOOOOoooo........ooooOOOOoooo    XXXX++++    ",
"    ++++XXXX    ooooOOOOoooo........ooooOOOOoooo    XXXX++++    ",
"    ++++XXXX    ooooOOOOoooo........ooooOOOOoooo    XXXX++++    ",
"    ++++XXXX    ooooOOOOoooo........ooooOOOOoooo    XXXX++++    ",
"    ++++XXXX    ooooOOOOoooo........ooooOOOOoooo    XXXX++++    ",
"    ++++XXXX    ooooOOOOoooo........ooooOOOOoooo    XXXX++++    ",
"    ++++XXXX    ooooOOOOoooo........ooooOOOOoooo    XXXX++++    ",
"    ++++XXXX    ooooOOOOoooo........ooooOOOOoooo    XXXX++++    ",
"    XXXX++++XXXX    ooooOOOOooooooooOOOOoooo    XXXX++++XXXX    ",
"    XXXX++++XXXX    ooooOOOOooooooooOOOOoooo    XXXX++++XXXX    ",
"    XXXX++++XXXX    ooooOOOOooooooooOOOOoooo    XXXX++++XXXX    ",
"    XXXX++++XXXX    ooooOOOOooooooooOOOOoooo    XXXX++++XXXX    ",
"    XXXXXXXX++++XXXX    ooooOOOOOOOOoooo    XXXX++++XXXXXXXX    ",
"    XXXXXXXX++++XXXX    ooooOOOOOOOOoooo    XXXX++++XXXXXXXX    ",
"    XXXXXXXX++++XXXX    ooooOOOOOOOOoooo    XXXX++++XXXXXXXX    ",
"    XXXXXXXX++++XXXX    ooooOOOOOOOOoooo    XXXX++++XXXXXXXX    ",
"    XXXX    XXXX++++XXXX    oooooooo    XXXX++++XXXX    XXXX    ",
"    XXXX    XXXX++++XXXX    oooooooo    XXXX++++XXXX    XXXX    ",
"    XXXX    XXXX++++XXXX    oooooooo    XXXX++++XXXX    XXXX    ",
"    XXXX    XXXX++++XXXX    oooooooo    XXXX++++XXXX    XXXX    ",
"    ++++        XXXX++++XXXX        XXXX++++XXXX        ++++    ",
"    ++++        XXXX++++XXXX        XXXX++++XXXX        ++++    ",
"    ++++        XXXX++++XXXX        XXXX++++XXXX        ++++    ",
"    ++++        XXXX++++XXXX        XXXX++++XXXX        ++++    ",
"    ++++XXXX        XXXX++++XXXXXXXX++++XXXX        XXXX++++    ",
"    ++++XXXX        XXXX++++XXXXXXXX++++XXXX        XXXX++++    ",
"    ++++XXXX        XXXX++++XXXXXXXX++++XXXX        XXXX++++    ",
"    ++++XXXX        XXXX++++XXXXXXXX++++XXXX        XXXX++++    ",
"    XXXX++++++++XXXXXXXXXXXX++++++++XXXXXXXXXXXX++++++++XXXX    ",
"    XXXX++++++++XXXXXXXXXXXX++++++++XXXXXXXXXXXX++++++++XXXX    ",
"    XXXX++++++++XXXXXXXXXXXX++++++++XXXXXXXXXXXX++++++++XXXX    ",
"    XXXX++++++++XXXXXXXXXXXX++++++++XXXXXXXXXXXX++++++++XXXX    ",
"                                                                ",
"                                                                ",
"                                                                ",
"                                                                "
};
