/* XPM */
static char *result[] = {
/* columns rows colors chars-per-pixel */
"16 16 6 1 ",
"  c gray19",
". c #2F5F4C",
"X c #585858",
"o c #409070",
"O c #58C8A0",
"+ c #A0A0A0",
/* pixels */
"                ",
" X++XXX++XXX++X ",
" +X  X+XX+X  X+ ",
" +  X+X  X+X  + ",
" X X+X XX X+X X ",
" XX+X XOOX X+XX ",
" X+X XOooOX X+X ",
" +X XOo..oOX X+ ",
" +X XOo..oOX X+ ",
" X+X XOooOX X+X ",
" XX+X XOOX X+XX ",
" X X+X XX X+X X ",
" +  X+X  X+X  + ",
" +X  X+XX+X  X+ ",
" X++XXX++XXX++X ",
"                "
};
