/* XPM */
static char *result[] = {
/* columns rows colors chars-per-pixel */
"64 64 6 1 ",
"  c gray19",
". c #2F5F4C",
"X c #585858",
"o c #409070",
"O c #58C8A0",
"+ c #A0A0A0",
/* pixels */
"                                                                ",
"                                                                ",
"                                                                ",
"                                                                ",
"    XXXX++++++++XXXXXXXXXXXXOOOOOOOOXXXXXXXXXXXX++++++++XXXX    ",
"    XXXX++++++++XXXXXXXXXXXXOOOOOOOOXXXXXXXXXXXX++++++++XXXX    ",
"    XXXX++++++++XXXXXXXXXXXXOOOOOOOOXXXXXXXXXXXX++++++++XXXX    ",
"    XXXX++++++++XXXXXXXXXXXXOOOOOOOOXXXXXXXXXXXX++++++++XXXX    ",
"    ++++XXXX        XXXXOOOOooooooooOOOOXXXX        XXXX++++    ",
"    ++++XXXX        XXXXOOOOooooooooOOOOXXXX        XXXX++++    ",
"    ++++XXXX        XXXXOOOOooooooooOOOOXXXX        XXXX++++    ",
"    ++++XXXX        XXXXOOOOooooooooOOOOXXXX        XXXX++++    ",
"    ++++        XXXXOOOOoooo........ooooOOOOXXXX        ++++    ",
"    ++++        XXXXOOOOoooo........ooooOOOOXXXX        ++++    ",
"    ++++        XXXXOOOOoooo........ooooOOOOXXXX        ++++    ",
"    ++++        XXXXOOOOoooo........ooooOOOOXXXX        ++++    ",
"    XXXX    XXXXOOOOoooo....oooooooo....ooooOOOOXXXX    XXXX    ",
"    XXXX    XXXXOOOOoooo....oooooooo....ooooOOOOXXXX    XXXX    ",
"    XXXX    XXXXOOOOoooo....oooooooo....ooooOOOOXXXX    XXXX    ",
"    XXXX    XXXXOOOOoooo....oooooooo....ooooOOOOXXXX    XXXX    ",
"    XXXXXXXXOOOOoooo....ooooOOOOOOOOoooo....ooooOOOOXXXXXXXX    ",
"    XXXXXXXXOOOOoooo....ooooOOOOOOOOoooo....ooooOOOOXXXXXXXX    ",
"    XXXXXXXXOOOOoooo....ooooOOOOOOOOoooo....ooooOOOOXXXXXXXX    ",
"    XXXXXXXXOOOOoooo....ooooOOOOOOOOoooo....ooooOOOOXXXXXXXX    ",
"    XXXXOOOOoooo....ooooOOOOooooooooOOOOoooo....ooooOOOOXXXX    ",
"    XXXXOOOOoooo....ooooOOOOooooooooOOOOoooo....ooooOOOOXXXX    ",
"    XXXXOOOOoooo....ooooOOOOooooooooOOOOoooo....ooooOOOOXXXX    ",
"    XXXXOOOOoooo....ooooOOOOooooooooOOOOoooo....ooooOOOOXXXX    ",
"    OOOOoooo....ooooOOOOoooo........ooooOOOOoooo....ooooOOOO    ",
"    OOOOoooo....ooooOOOOoooo........ooooOOOOoooo....ooooOOOO    ",
"    OOOOoooo....ooooOOOOoooo........ooooOOOOoooo....ooooOOOO    ",
"    OOOOoooo....ooooOOOOoooo........ooooOOOOoooo....ooooOOOO    ",
"    OOOOoooo....ooooOOOOoooo........ooooOOOOoooo....ooooOOOO    ",
"    OOOOoooo....ooooOOOOoooo........ooooOOOOoooo....ooooOOOO    ",
"    OOOOoooo....ooooOOOOoooo........ooooOOOOoooo....ooooOOOO    ",
"    OOOOoooo....ooooOOOOoooo........ooooOOOOoooo....ooooOOOO    ",
"    XXXXOOOOoooo....ooooOOOOooooooooOOOOoooo....ooooOOOOXXXX    ",
"    XXXXOOOOoooo....ooooOOOOooooooooOOOOoooo....ooooOOOOXXXX    ",
"    XXXXOOOOoooo....ooooOOOOooooooooOOOOoooo....ooooOOOOXXXX    ",
"    XXXXOOOOoooo....ooooOOOOooooooooOOOOoooo....ooooOOOOXXXX    ",
"    XXXXXXXXOOOOoooo....ooooOOOOOOOOoooo....ooooOOOOXXXXXXXX    ",
"    XXXXXXXXOOOOoooo....ooooOOOOOOOOoooo....ooooOOOOXXXXXXXX    ",
"    XXXXXXXXOOOOoooo....ooooOOOOOOOOoooo....ooooOOOOXXXXXXXX    ",
"    XXXXXXXXOOOOoooo....ooooOOOOOOOOoooo....ooooOOOOXXXXXXXX    ",
"    XXXX    XXXXOOOOoooo....oooooooo....ooooOOOOXXXX    XXXX    ",
"    XXXX    XXXXOOOOoooo....oooooooo....ooooOOOOXXXX    XXXX    ",
"    XXXX    XXXXOOOOoooo....oooooooo....ooooOOOOXXXX    XXXX    ",
"    XXXX    XXXXOOOOoooo....oooooooo....ooooOOOOXXXX    XXXX    ",
"    ++++        XXXXOOOOoooo........ooooOOOOXXXX        ++++    ",
"    ++++        XXXXOOOOoooo........ooooOOOOXXXX        ++++    ",
"    ++++        XXXXOOOOoooo........ooooOOOOXXXX        ++++    ",
"    ++++        XXXXOOOOoooo........ooooOOOOXXXX        ++++    ",
"    ++++XXXX        XXXXOOOOooooooooOOOOXXXX        XXXX++++    ",
"    ++++XXXX        XXXXOOOOooooooooOOOOXXXX        XXXX++++    ",
"    ++++XXXX        XXXXOOOOooooooooOOOOXXXX        XXXX++++    ",
"    ++++XXXX        XXXXOOOOooooooooOOOOXXXX        XXXX++++    ",
"    XXXX++++++++XXXXXXXXXXXXOOOOOOOOXXXXXXXXXXXX++++++++XXXX    ",
"    XXXX++++++++XXXXXXXXXXXXOOOOOOOOXXXXXXXXXXXX++++++++XXXX    ",
"    XXXX++++++++XXXXXXXXXXXXOOOOOOOOXXXXXXXXXXXX++++++++XXXX    ",
"    XXXX++++++++XXXXXXXXXXXXOOOOOOOOXXXXXXXXXXXX++++++++XXXX    ",
"                                                                ",
"                                                                ",
"                                                                ",
"                                                                "
};
