/* XPM */
static char *result[] = {
/* columns rows colors chars-per-pixel */
"16 16 3 1 ",
"  c #404860",
". c #505070",
"X c #606080",
/* pixels */
".... XXXXXX ..X.",
"... XXX....X ...",
".. X.X......X ..",
". X.........XX .",
" XX..XX.......X ",
" X....X.......X ",
" X.........X..X ",
" X.........X..X ",
" X............X ",
" X.....XX.....X ",
" X.....XX.....X ",
"X XX........XX X",
".X X........X X.",
".XX XX.....X XX.",
"...X .XXX.X X...",
"X..XX      X...."
};
