/* XPM */
static char *result[] = {
/* columns rows colors chars-per-pixel */
"64 64 3 1 ",
"  c #404860",
". c #505070",
"X c #606080",
/* pixels */
"................    XXXXXXXXXXXXXXXXXXXXXXXX    ........XXXX....",
"................    XXXXXXXXXXXXXXXXXXXXXXXX    ........XXXX....",
"................    XXXXXXXXXXXXXXXXXXXXXXXX    ........XXXX....",
"................    XXXXXXXXXXXXXXXXXXXXXXXX    ........XXXX....",
"............    XXXXXXXXXXXX................XXXX    ............",
"............    XXXXXXXXXXXX................XXXX    ............",
"............    XXXXXXXXXXXX................XXXX    ............",
"............    XXXXXXXXXXXX................XXXX    ............",
"........    XXXX....XXXX........................XXXX    ........",
"........    XXXX....XXXX........................XXXX    ........",
"........    XXXX....XXXX........................XXXX    ........",
"........    XXXX....XXXX........................XXXX    ........",
"....    XXXX....................................XXXXXXXX    ....",
"....    XXXX....................................XXXXXXXX    ....",
"....    XXXX....................................XXXXXXXX    ....",
"....    XXXX....................................XXXXXXXX    ....",
"    XXXXXXXX........XXXXXXXX............................XXXX    ",
"    XXXXXXXX........XXXXXXXX............................XXXX    ",
"    XXXXXXXX........XXXXXXXX............................XXXX    ",
"    XXXXXXXX........XXXXXXXX............................XXXX    ",
"    XXXX................XXXX............................XXXX    ",
"    XXXX................XXXX............................XXXX    ",
"    XXXX................XXXX............................XXXX    ",
"    XXXX................XXXX............................XXXX    ",
"    XXXX....................................XXXX........XXXX    ",
"    XXXX....................................XXXX........XXXX    ",
"    XXXX....................................XXXX........XXXX    ",
"    XXXX....................................XXXX........XXXX    ",
"    XXXX....................................XXXX........XXXX    ",
"    XXXX....................................XXXX........XXXX    ",
"    XXXX....................................XXXX........XXXX    ",
"    XXXX....................................XXXX........XXXX    ",
"    XXXX................................................XXXX    ",
"    XXXX................................................XXXX    ",
"    XXXX................................................XXXX    ",
"    XXXX................................................XXXX    ",
"    XXXX....................XXXXXXXX....................XXXX    ",
"    XXXX....................XXXXXXXX....................XXXX    ",
"    XXXX....................XXXXXXXX....................XXXX    ",
"    XXXX....................XXXXXXXX....................XXXX    ",
"    XXXX....................XXXXXXXX....................XXXX    ",
"    XXXX....................XXXXXXXX....................XXXX    ",
"    XXXX....................XXXXXXXX....................XXXX    ",
"    XXXX....................XXXXXXXX....................XXXX    ",
"XXXX    XXXXXXXX................................XXXXXXXX    XXXX",
"XXXX    XXXXXXXX................................XXXXXXXX    XXXX",
"XXXX    XXXXXXXX................................XXXXXXXX    XXXX",
"XXXX    XXXXXXXX................................XXXXXXXX    XXXX",
"....XXXX    XXXX................................XXXX    XXXX....",
"....XXXX    XXXX................................XXXX    XXXX....",
"....XXXX    XXXX................................XXXX    XXXX....",
"....XXXX    XXXX................................XXXX    XXXX....",
"....XXXXXXXX    XXXXXXXX....................XXXX    XXXXXXXX....",
"....XXXXXXXX    XXXXXXXX....................XXXX    XXXXXXXX....",
"....XXXXXXXX    XXXXXXXX....................XXXX    XXXXXXXX....",
"....XXXXXXXX    XXXXXXXX....................XXXX    XXXXXXXX....",
"............XXXX    ....XXXXXXXXXXXX....XXXX    XXXX............",
"............XXXX    ....XXXXXXXXXXXX....XXXX    XXXX............",
"............XXXX    ....XXXXXXXXXXXX....XXXX    XXXX............",
"............XXXX    ....XXXXXXXXXXXX....XXXX    XXXX............",
"XXXX........XXXXXXXX                        XXXX................",
"XXXX........XXXXXXXX                        XXXX................",
"XXXX........XXXXXXXX                        XXXX................",
"XXXX........XXXXXXXX                        XXXX................"
};
