/* XPM */
static char *result[] = {
/* columns rows colors chars-per-pixel */
"64 64 6 1 ",
"  c #404860",
". c #505070",
"X c #C84C0C",
"o c #FC9838",
"O c #80D010",
"+ c #606080",
/* pixels */
"................    OOOOOOOOOOOOOOOOOOOOOOOO    ........++++....",
"................    OOOOOOOOOOOOOOOOOOOOOOOO    ........++++....",
"................    OOOOOOOOOOOOOOOOOOOOOOOO    ........++++....",
"................    OOOOOOOOOOOOOOOOOOOOOOOO    ........++++....",
"............    OOOOOOOOOOOOOOOOOOOOOOOOOOOOOOOO    ............",
"............    OOOOOOOOOOOOOOOOOOOOOOOOOOOOOOOO    ............",
"............    OOOOOOOOOOOOOOOOOOOOOOOOOOOOOOOO    ............",
"............    OOOOOOOOOOOOOOOOOOOOOOOOOOOOOOOO    ............",
"........oooo++++OOOOOOOOOOOOOOOOOOOOOOOOOOOOOOOO++++oooo........",
"........oooo++++OOOOOOOOOOOOOOOOOOOOOOOOOOOOOOOO++++oooo........",
"........oooo++++OOOOOOOOOOOOOOOOOOOOOOOOOOOOOOOO++++oooo........",
"........oooo++++OOOOOOOOOOOOOOOOOOOOOOOOOOOOOOOO++++oooo........",
"....    ooooOOOOOOOOOOOOOOOOOOOOOOOOOOOOOOOOOOOOOOOOoooo    ....",
"....    ooooOOOOOOOOOOOOOOOOOOOOOOOOOOOOOOOOOOOOOOOOoooo    ....",
"....    ooooOOOOOOOOOOOOOOOOOOOOOOOOOOOOOOOOOOOOOOOOoooo    ....",
"....    ooooOOOOOOOOOOOOOOOOOOOOOOOOOOOOOOOOOOOOOOOOoooo    ....",
"    ++++ooooXXXXOOOOOOOOOOOOOOOOOOOOOOOOOOOOOOOOXXXXoooo++++    ",
"    ++++ooooXXXXOOOOOOOOOOOOOOOOOOOOOOOOOOOOOOOOXXXXoooo++++    ",
"    ++++ooooXXXXOOOOOOOOOOOOOOOOOOOOOOOOOOOOOOOOXXXXoooo++++    ",
"    ++++ooooXXXXOOOOOOOOOOOOOOOOOOOOOOOOOOOOOOOOXXXXoooo++++    ",
"    ++++ooooooooXXXXXXXXOOOOOOOOOOOOOOOOXXXXXXXXoooooooo++++    ",
"    ++++ooooooooXXXXXXXXOOOOOOOOOOOOOOOOXXXXXXXXoooooooo++++    ",
"    ++++ooooooooXXXXXXXXOOOOOOOOOOOOOOOOXXXXXXXXoooooooo++++    ",
"    ++++ooooooooXXXXXXXXOOOOOOOOOOOOOOOOXXXXXXXXoooooooo++++    ",
"    ++++....ooooXXXXXXXXXXXXOOOOOOOOXXXXXXXXXXXXoooo....++++    ",
"    ++++....ooooXXXXXXXXXXXXOOOOOOOOXXXXXXXXXXXXoooo....++++    ",
"    ++++....ooooXXXXXXXXXXXXOOOOOOOOXXXXXXXXXXXXoooo....++++    ",
"    ++++....ooooXXXXXXXXXXXXOOOOOOOOXXXXXXXXXXXXoooo....++++    ",
"    ++++....XXXXOOOOXXXXXXXXXXXXXXXXXXXXXXXXOOOOXXXX....++++    ",
"    ++++....XXXXOOOOXXXXXXXXXXXXXXXXXXXXXXXXOOOOXXXX....++++    ",
"    ++++....XXXXOOOOXXXXXXXXXXXXXXXXXXXXXXXXOOOOXXXX....++++    ",
"    ++++....XXXXOOOOXXXXXXXXXXXXXXXXXXXXXXXXOOOOXXXX....++++    ",
"    ++++XXXXXXXXOOOOOOOOOOOOOOOOOOOOOOOOOOOOXXXXXXXX....++++    ",
"    ++++XXXXXXXXOOOOOOOOOOOOOOOOOOOOOOOOOOOOXXXXXXXX....++++    ",
"    ++++XXXXXXXXOOOOOOOOOOOOOOOOOOOOOOOOOOOOXXXXXXXX....++++    ",
"    ++++XXXXXXXXOOOOOOOOOOOOOOOOOOOOOOOOOOOOXXXXXXXX....++++    ",
"    ++++XXXXXXXXOOOOOOOOOOOOOOOOOOOOOOOOOOOOXXXXXXXXoooo++++    ",
"    ++++XXXXXXXXOOOOOOOOOOOOOOOOOOOOOOOOOOOOXXXXXXXXoooo++++    ",
"    ++++XXXXXXXXOOOOOOOOOOOOOOOOOOOOOOOOOOOOXXXXXXXXoooo++++    ",
"    ++++XXXXXXXXOOOOOOOOOOOOOOOOOOOOOOOOOOOOXXXXXXXXoooo++++    ",
"    ++++....XXXXXXXXOOOOOOOOOOOOOOOOOOOOOOOOXXXXXXXXoooo++++    ",
"    ++++....XXXXXXXXOOOOOOOOOOOOOOOOOOOOOOOOXXXXXXXXoooo++++    ",
"    ++++....XXXXXXXXOOOOOOOOOOOOOOOOOOOOOOOOXXXXXXXXoooo++++    ",
"    ++++....XXXXXXXXOOOOOOOOOOOOOOOOOOOOOOOOXXXXXXXXoooo++++    ",
"++++    ++++OOOOOOOOXXXXXXXXXXXXXXXXXXXXXXXXOOOOoooooooo    ++++",
"++++    ++++OOOOOOOOXXXXXXXXXXXXXXXXXXXXXXXXOOOOoooooooo    ++++",
"++++    ++++OOOOOOOOXXXXXXXXXXXXXXXXXXXXXXXXOOOOoooooooo    ++++",
"++++    ++++OOOOOOOOXXXXXXXXXXXXXXXXXXXXXXXXOOOOoooooooo    ++++",
"....++++    OOOOOOOOOOOOOOOOOOOOOOOOOOOOOOOOOOOOOOOO    ++++....",
"....++++    OOOOOOOOOOOOOOOOOOOOOOOOOOOOOOOOOOOOOOOO    ++++....",
"....++++    OOOOOOOOOOOOOOOOOOOOOOOOOOOOOOOOOOOOOOOO    ++++....",
"....++++    OOOOOOOOOOOOOOOOOOOOOOOOOOOOOOOOOOOOOOOO    ++++....",
"....++++++++XXXXXXXXXXXXOOOOOOOOOOOOOOOOOOOOXXXX    ++++++++....",
"....++++++++XXXXXXXXXXXXOOOOOOOOOOOOOOOOOOOOXXXX    ++++++++....",
"....++++++++XXXXXXXXXXXXOOOOOOOOOOOOOOOOOOOOXXXX    ++++++++....",
"....++++++++XXXXXXXXXXXXOOOOOOOOOOOOOOOOOOOOXXXX    ++++++++....",
"............XXXXXXXXXXXXXXXX++++++++XXXXXXXX    ++++............",
"............XXXXXXXXXXXXXXXX++++++++XXXXXXXX    ++++............",
"............XXXXXXXXXXXXXXXX++++++++XXXXXXXX    ++++............",
"............XXXXXXXXXXXXXXXX++++++++XXXXXXXX    ++++............",
"++++........++++XXXXXXXX                    ++++................",
"++++........++++XXXXXXXX                    ++++................",
"++++........++++XXXXXXXX                    ++++................",
"++++........++++XXXXXXXX                    ++++................"
};
