/* XPM */
static char *result[] = {
/* columns rows colors chars-per-pixel */
"64 64 6 1 ",
"  c #404860",
". c #505070",
"X c #C84C0C",
"o c #FC9838",
"O c #80D010",
"+ c #606080",
/* pixels */
"................    OOOOOOOOOOOOOOOOOOOOOOOO    ........++++....",
"................    OOOOOOOOOOOOOOOOOOOOOOOO    ........++++....",
"................    OOOOOOOOOOOOOOOOOOOOOOOO    ........++++....",
"................    OOOOOOOOOOOOOOOOOOOOOOOO    ........++++....",
"............    OOOOOOOOOOOOOOOOOOOOOOOOOOOOOOOO    ............",
"............    OOOOOOOOOOOOOOOOOOOOOOOOOOOOOOOO    ............",
"............    OOOOOOOOOOOOOOOOOOOOOOOOOOOOOOOO    ............",
"............    OOOOOOOOOOOOOOOOOOOOOOOOOOOOOOOO    ............",
"........oooo++++OOOOXXXXXXXXXXXXXXXXXXXXXXXXOOOO++++oooo........",
"........oooo++++OOOOXXXXXXXXXXXXXXXXXXXXXXXXOOOO++++oooo........",
"........oooo++++OOOOXXXXXXXXXXXXXXXXXXXXXXXXOOOO++++oooo........",
"........oooo++++OOOOXXXXXXXXXXXXXXXXXXXXXXXXOOOO++++oooo........",
"....    oooo....XXXXXXXXXXXXXXXXXXXXXXXXXXXXXXXX++++oooo    ....",
"....    oooo....XXXXXXXXXXXXXXXXXXXXXXXXXXXXXXXX++++oooo    ....",
"....    oooo....XXXXXXXXXXXXXXXXXXXXXXXXXXXXXXXX++++oooo    ....",
"....    oooo....XXXXXXXXXXXXXXXXXXXXXXXXXXXXXXXX++++oooo    ....",
"    ++++ooooooooXXXXooooOOOOooooooooOOOOooooXXXXoooooooo++++    ",
"    ++++ooooooooXXXXooooOOOOooooooooOOOOooooXXXXoooooooo++++    ",
"    ++++ooooooooXXXXooooOOOOooooooooOOOOooooXXXXoooooooo++++    ",
"    ++++ooooooooXXXXooooOOOOooooooooOOOOooooXXXXoooooooo++++    ",
"    ++++ooooooooXXXXooooXXXXooooooooXXXXooooXXXXoooooooo++++    ",
"    ++++ooooooooXXXXooooXXXXooooooooXXXXooooXXXXoooooooo++++    ",
"    ++++ooooooooXXXXooooXXXXooooooooXXXXooooXXXXoooooooo++++    ",
"    ++++ooooooooXXXXooooXXXXooooooooXXXXooooXXXXoooooooo++++    ",
"    ++++....ooooooooooooooooooooooooooooooooooooooooXXXX++++    ",
"    ++++....ooooooooooooooooooooooooooooooooooooooooXXXX++++    ",
"    ++++....ooooooooooooooooooooooooooooooooooooooooXXXX++++    ",
"    ++++....ooooooooooooooooooooooooooooooooooooooooXXXX++++    ",
"    ++++....OOOOOOOOooooooooXXXXXXXXooooooooOOOOOOOOXXXX++++    ",
"    ++++....OOOOOOOOooooooooXXXXXXXXooooooooOOOOOOOOXXXX++++    ",
"    ++++....OOOOOOOOooooooooXXXXXXXXooooooooOOOOOOOOXXXX++++    ",
"    ++++....OOOOOOOOooooooooXXXXXXXXooooooooOOOOOOOOXXXX++++    ",
"    XXXXXXXXXXXXXXXXXXXXooooooooooooooooOOOOOOOOXXXXXXXXXXXX    ",
"    XXXXXXXXXXXXXXXXXXXXooooooooooooooooOOOOOOOOXXXXXXXXXXXX    ",
"    XXXXXXXXXXXXXXXXXXXXooooooooooooooooOOOOOOOOXXXXXXXXXXXX    ",
"    XXXXXXXXXXXXXXXXXXXXooooooooooooooooOOOOOOOOXXXXXXXXXXXX    ",
"XXXXXXXXooooXXXXXXXXXXXXXXXXOOOOOOOOOOOOOOOOOOOOooooXXXXXXXX    ",
"XXXXXXXXooooXXXXXXXXXXXXXXXXOOOOOOOOOOOOOOOOOOOOooooXXXXXXXX    ",
"XXXXXXXXooooXXXXXXXXXXXXXXXXOOOOOOOOOOOOOOOOOOOOooooXXXXXXXX    ",
"XXXXXXXXooooXXXXXXXXXXXXXXXXOOOOOOOOOOOOOOOOOOOOooooXXXXXXXX    ",
"XXXXooooooooooooXXXXXXXXooooXXXXXXXXOOOOOOOOooooooooooooXXXX    ",
"XXXXooooooooooooXXXXXXXXooooXXXXXXXXOOOOOOOOooooooooooooXXXX    ",
"XXXXooooooooooooXXXXXXXXooooXXXXXXXXOOOOOOOOooooooooooooXXXX    ",
"XXXXooooooooooooXXXXXXXXooooXXXXXXXXOOOOOOOOooooooooooooXXXX    ",
"XXXXXXXXooooXXXXXXXXXXXXooooOOOOXXXXXXXXXXXXXXXXoooooooooooo++++",
"XXXXXXXXooooXXXXXXXXXXXXooooOOOOXXXXXXXXXXXXXXXXoooooooooooo++++",
"XXXXXXXXooooXXXXXXXXXXXXooooOOOOXXXXXXXXXXXXXXXXoooooooooooo++++",
"XXXXXXXXooooXXXXXXXXXXXXooooOOOOXXXXXXXXXXXXXXXXoooooooooooo++++",
"XXXXXXXXooooXXXXXXXXXXXXooooXXXXXXXXOOOOOOOOOOOOOOOOoooo++++....",
"XXXXXXXXooooXXXXXXXXXXXXooooXXXXXXXXOOOOOOOOOOOOOOOOoooo++++....",
"XXXXXXXXooooXXXXXXXXXXXXooooXXXXXXXXOOOOOOOOOOOOOOOOoooo++++....",
"XXXXXXXXooooXXXXXXXXXXXXooooXXXXXXXXOOOOOOOOOOOOOOOOoooo++++....",
"XXXXXXXXXXXXXXXXXXXXXXXXooooOOOOOOOOOOOOOOOOOOOO    ++++++++....",
"XXXXXXXXXXXXXXXXXXXXXXXXooooOOOOOOOOOOOOOOOOOOOO    ++++++++....",
"XXXXXXXXXXXXXXXXXXXXXXXXooooOOOOOOOOOOOOOOOOOOOO    ++++++++....",
"XXXXXXXXXXXXXXXXXXXXXXXXooooOOOOOOOOOOOOOOOOOOOO    ++++++++....",
"....ooooooooooooooooooooXXXX++++++++XXXXXXXXXXXX++++............",
"....ooooooooooooooooooooXXXX++++++++XXXXXXXXXXXX++++............",
"....ooooooooooooooooooooXXXX++++++++XXXXXXXXXXXX++++............",
"....ooooooooooooooooooooXXXX++++++++XXXXXXXXXXXX++++............",
"++++........++++XXXXXXXXXXXX                ++++................",
"++++........++++XXXXXXXXXXXX                ++++................",
"++++........++++XXXXXXXXXXXX                ++++................",
"++++........++++XXXXXXXXXXXX                ++++................"
};
