/* XPM */
static char *result[] = {
/* columns rows colors chars-per-pixel */
"64 64 6 1 ",
"  c #404860",
". c #505070",
"X c #C84C0C",
"o c #FC9838",
"O c #80D010",
"+ c #606080",
/* pixels */
"................    ++++++++++++++++++++++++    ........++++....",
"................    ++++++++++++++++++++++++    ........++++....",
"................    ++++++++++++++++++++++++    ........++++....",
"................    ++++++++++++++++++++++++    ........++++....",
"............    ++++++++OOOOOOOOOOOOOOOO....++++    ............",
"............    ++++++++OOOOOOOOOOOOOOOO....++++    ............",
"............    ++++++++OOOOOOOOOOOOOOOO....++++    ............",
"............    ++++++++OOOOOOOOOOOOOOOO....++++    ............",
"........    ++++OOOOOOOOOOOOOOOOOOOOXXXXXXXXXXXXXXXX    ........",
"........    ++++OOOOOOOOOOOOOOOOOOOOXXXXXXXXXXXXXXXX    ........",
"........    ++++OOOOOOOOOOOOOOOOOOOOXXXXXXXXXXXXXXXX    ........",
"........    ++++OOOOOOOOOOOOOOOOOOOOXXXXXXXXXXXXXXXX    ........",
"....    OOOOOOOOOOOOooooOOOOOOOOXXXXXXXXXXXXXXXXXXXXXXXX    ....",
"....    OOOOOOOOOOOOooooOOOOOOOOXXXXXXXXXXXXXXXXXXXXXXXX    ....",
"....    OOOOOOOOOOOOooooOOOOOOOOXXXXXXXXXXXXXXXXXXXXXXXX    ....",
"....    OOOOOOOOOOOOooooOOOOOOOOXXXXXXXXXXXXXXXXXXXXXXXX    ....",
"    OOOOOOOOOOOOOOOOooooooooXXXXXXXXXXXXXXXXXXXXXXXX....++++    ",
"    OOOOOOOOOOOOOOOOooooooooXXXXXXXXXXXXXXXXXXXXXXXX....++++    ",
"    OOOOOOOOOOOOOOOOooooooooXXXXXXXXXXXXXXXXXXXXXXXX....++++    ",
"    OOOOOOOOOOOOOOOOooooooooXXXXXXXXXXXXXXXXXXXXXXXX....++++    ",
"    OOOO....OOOOOOOOooooooooooooXXXXooooooooOOOOoooo....++++    ",
"    OOOO....OOOOOOOOooooooooooooXXXXooooooooOOOOoooo....++++    ",
"    OOOO....OOOOOOOOooooooooooooXXXXooooooooOOOOoooo....++++    ",
"    OOOO....OOOOOOOOooooooooooooXXXXooooooooOOOOoooo....++++    ",
"    ++++....OOOOXXXXXXXXooooooooXXXXooooooooXXXXoooooooooooo    ",
"    ++++....OOOOXXXXXXXXooooooooXXXXooooooooXXXXoooooooooooo    ",
"    ++++....OOOOXXXXXXXXooooooooXXXXooooooooXXXXoooooooooooo    ",
"    ++++....OOOOXXXXXXXXooooooooXXXXooooooooXXXXoooooooooooo    ",
"    ++++........XXXXXXXXXXXXoooooooooooooooooooooooo....XXXX    ",
"    ++++........XXXXXXXXXXXXoooooooooooooooooooooooo....XXXX    ",
"    ++++........XXXXXXXXXXXXoooooooooooooooooooooooo....XXXX    ",
"    ++++........XXXXXXXXXXXXoooooooooooooooooooooooo....XXXX    ",
"    ++++............OOOOOOOOOOOOOOOOoooooooooooooooo....XXXX    ",
"    ++++............OOOOOOOOOOOOOOOOoooooooooooooooo....XXXX    ",
"    ++++............OOOOOOOOOOOOOOOOoooooooooooooooo....XXXX    ",
"    ++++............OOOOOOOOOOOOOOOOoooooooooooooooo....XXXX    ",
"    ++++....OOOOXXXXXXXXOOOOOOOOooooooooooooXXXXXXXXooooXXXX    ",
"    ++++....OOOOXXXXXXXXOOOOOOOOooooooooooooXXXXXXXXooooXXXX    ",
"    ++++....OOOOXXXXXXXXOOOOOOOOooooooooooooXXXXXXXXooooXXXX    ",
"    ++++....OOOOXXXXXXXXOOOOOOOOooooooooooooXXXXXXXXooooXXXX    ",
"    ++++....XXXXXXXXXXXXXXXXXXXXooooooooooooOOOOXXXXooooXXXX    ",
"    ++++....XXXXXXXXXXXXXXXXXXXXooooooooooooOOOOXXXXooooXXXX    ",
"    ++++....XXXXXXXXXXXXXXXXXXXXooooooooooooOOOOXXXXooooXXXX    ",
"    ++++....XXXXXXXXXXXXXXXXXXXXooooooooooooOOOOXXXXooooXXXX    ",
"++++    OOOOXXXXXXXXXXXXXXXXXXXXooooooooOOOOOOOOXXXX++++XXXX++++",
"++++    OOOOXXXXXXXXXXXXXXXXXXXXooooooooOOOOOOOOXXXX++++XXXX++++",
"++++    OOOOXXXXXXXXXXXXXXXXXXXXooooooooOOOOOOOOXXXX++++XXXX++++",
"++++    OOOOXXXXXXXXXXXXXXXXXXXXooooooooOOOOOOOOXXXX++++XXXX++++",
"....++++OOOOOOOOXXXXXXXXXXXXXXXXOOOOOOOOOOOOXXXX++++    XXXX....",
"....++++OOOOOOOOXXXXXXXXXXXXXXXXOOOOOOOOOOOOXXXX++++    XXXX....",
"....++++OOOOOOOOXXXXXXXXXXXXXXXXOOOOOOOOOOOOXXXX++++    XXXX....",
"....++++OOOOOOOOXXXXXXXXXXXXXXXXOOOOOOOOOOOOXXXX++++    XXXX....",
"....XXXXXXXXOOOOOOOOOOOOOOOOOOOOXXXXXXXXXXXXXXXXOOOO++++XXXX....",
"....XXXXXXXXOOOOOOOOOOOOOOOOOOOOXXXXXXXXXXXXXXXXOOOO++++XXXX....",
"....XXXXXXXXOOOOOOOOOOOOOOOOOOOOXXXXXXXXXXXXXXXXOOOO++++XXXX....",
"....XXXXXXXXOOOOOOOOOOOOOOOOOOOOXXXXXXXXXXXXXXXXOOOO++++XXXX....",
"....XXXXXXXXXXXXOOOOOOOOOOOOOOOOOOOOOOOOOOOOOOOOXXXXXXXX........",
"....XXXXXXXXXXXXOOOOOOOOOOOOOOOOOOOOOOOOOOOOOOOOXXXXXXXX........",
"....XXXXXXXXXXXXOOOOOOOOOOOOOOOOOOOOOOOOOOOOOOOOXXXXXXXX........",
"....XXXXXXXXXXXXOOOOOOOOOOOOOOOOOOOOOOOOOOOOOOOOXXXXXXXX........",
"++++....XXXXXXXXXXXX                    XXXXXXXXXXXX............",
"++++....XXXXXXXXXXXX                    XXXXXXXXXXXX............",
"++++....XXXXXXXXXXXX                    XXXXXXXXXXXX............",
"++++....XXXXXXXXXXXX                    XXXXXXXXXXXX............"
};
