/* XPM */
static char *result[] = {
/* columns rows colors chars-per-pixel */
"64 64 6 1 ",
"  c #404860",
". c #505070",
"X c #C84C0C",
"o c #FC9838",
"O c #80D010",
"+ c #606080",
/* pixels */
"................    ++++++++++++++++++++++++    ........++++....",
"................    ++++++++++++++++++++++++    ........++++....",
"................    ++++++++++++++++++++++++    ........++++....",
"................    ++++++++++++++++++++++++    ........++++....",
"............    ++++++++OOOOOOOOOOOOOOOO....++++    ............",
"............    ++++++++OOOOOOOOOOOOOOOO....++++    ............",
"............    ++++++++OOOOOOOOOOOOOOOO....++++    ............",
"............    ++++++++OOOOOOOOOOOOOOOO....++++    ............",
"........    XXXXXXXXXXXXXXXXOOOOOOOOOOOOOOOOOOOO++++    ........",
"........    XXXXXXXXXXXXXXXXOOOOOOOOOOOOOOOOOOOO++++    ........",
"........    XXXXXXXXXXXXXXXXOOOOOOOOOOOOOOOOOOOO++++    ........",
"........    XXXXXXXXXXXXXXXXOOOOOOOOOOOOOOOOOOOO++++    ........",
"....    XXXXXXXXXXXXXXXXXXXXXXXXOOOOOOOOooooOOOOOOOOOOOO    ....",
"....    XXXXXXXXXXXXXXXXXXXXXXXXOOOOOOOOooooOOOOOOOOOOOO    ....",
"....    XXXXXXXXXXXXXXXXXXXXXXXXOOOOOOOOooooOOOOOOOOOOOO    ....",
"....    XXXXXXXXXXXXXXXXXXXXXXXXOOOOOOOOooooOOOOOOOOOOOO    ....",
"    ++++++++XXXXXXXXXXXXXXXXXXXXXXXXooooooooOOOOOOOOOOOOOOOO    ",
"    ++++++++XXXXXXXXXXXXXXXXXXXXXXXXooooooooOOOOOOOOOOOOOOOO    ",
"    ++++++++XXXXXXXXXXXXXXXXXXXXXXXXooooooooOOOOOOOOOOOOOOOO    ",
"    ++++++++XXXXXXXXXXXXXXXXXXXXXXXXooooooooOOOOOOOOOOOOOOOO    ",
"    ++++....ooooOOOOooooooooXXXXooooooooooooOOOOOOOO....OOOO    ",
"    ++++....ooooOOOOooooooooXXXXooooooooooooOOOOOOOO....OOOO    ",
"    ++++....ooooOOOOooooooooXXXXooooooooooooOOOOOOOO....OOOO    ",
"    ++++....ooooOOOOooooooooXXXXooooooooooooOOOOOOOO....OOOO    ",
"    ooooooooooooXXXXooooooooXXXXooooooooXXXXXXXXOOOO....++++    ",
"    ooooooooooooXXXXooooooooXXXXooooooooXXXXXXXXOOOO....++++    ",
"    ooooooooooooXXXXooooooooXXXXooooooooXXXXXXXXOOOO....++++    ",
"    ooooooooooooXXXXooooooooXXXXooooooooXXXXXXXXOOOO....++++    ",
"    XXXX....ooooooooooooooooooooooooXXXXXXXXXXXX........++++    ",
"    XXXX....ooooooooooooooooooooooooXXXXXXXXXXXX........++++    ",
"    XXXX....ooooooooooooooooooooooooXXXXXXXXXXXX........++++    ",
"    XXXX....ooooooooooooooooooooooooXXXXXXXXXXXX........++++    ",
"    XXXX....ooooooooooooooooOOOOOOOOOOOOOOOO............++++    ",
"    XXXX....ooooooooooooooooOOOOOOOOOOOOOOOO............++++    ",
"    XXXX....ooooooooooooooooOOOOOOOOOOOOOOOO............++++    ",
"    XXXX....ooooooooooooooooOOOOOOOOOOOOOOOO............++++    ",
"    XXXXooooXXXXXXXXooooooooooooOOOOOOOOXXXXXXXXOOOO....++++    ",
"    XXXXooooXXXXXXXXooooooooooooOOOOOOOOXXXXXXXXOOOO....++++    ",
"    XXXXooooXXXXXXXXooooooooooooOOOOOOOOXXXXXXXXOOOO....++++    ",
"    XXXXooooXXXXXXXXooooooooooooOOOOOOOOXXXXXXXXOOOO....++++    ",
"    XXXXooooXXXXOOOOooooooooooooXXXXXXXXXXXXXXXXXXXX....++++    ",
"    XXXXooooXXXXOOOOooooooooooooXXXXXXXXXXXXXXXXXXXX....++++    ",
"    XXXXooooXXXXOOOOooooooooooooXXXXXXXXXXXXXXXXXXXX....++++    ",
"    XXXXooooXXXXOOOOooooooooooooXXXXXXXXXXXXXXXXXXXX....++++    ",
"++++XXXX++++XXXXOOOOOOOOooooooooXXXXXXXXXXXXXXXXXXXXOOOO    ++++",
"++++XXXX++++XXXXOOOOOOOOooooooooXXXXXXXXXXXXXXXXXXXXOOOO    ++++",
"++++XXXX++++XXXXOOOOOOOOooooooooXXXXXXXXXXXXXXXXXXXXOOOO    ++++",
"++++XXXX++++XXXXOOOOOOOOooooooooXXXXXXXXXXXXXXXXXXXXOOOO    ++++",
"....XXXX    ++++XXXXOOOOOOOOOOOOXXXXXXXXXXXXXXXXOOOOOOOO++++....",
"....XXXX    ++++XXXXOOOOOOOOOOOOXXXXXXXXXXXXXXXXOOOOOOOO++++....",
"....XXXX    ++++XXXXOOOOOOOOOOOOXXXXXXXXXXXXXXXXOOOOOOOO++++....",
"....XXXX    ++++XXXXOOOOOOOOOOOOXXXXXXXXXXXXXXXXOOOOOOOO++++....",
"....XXXX++++OOOOXXXXXXXXXXXXXXXXOOOOOOOOOOOOOOOOOOOOXXXXXXXX....",
"....XXXX++++OOOOXXXXXXXXXXXXXXXXOOOOOOOOOOOOOOOOOOOOXXXXXXXX....",
"....XXXX++++OOOOXXXXXXXXXXXXXXXXOOOOOOOOOOOOOOOOOOOOXXXXXXXX....",
"....XXXX++++OOOOXXXXXXXXXXXXXXXXOOOOOOOOOOOOOOOOOOOOXXXXXXXX....",
"........XXXXXXXXOOOOOOOOOOOOOOOOOOOOOOOOOOOOOOOOXXXXXXXXXXXX....",
"........XXXXXXXXOOOOOOOOOOOOOOOOOOOOOOOOOOOOOOOOXXXXXXXXXXXX....",
"........XXXXXXXXOOOOOOOOOOOOOOOOOOOOOOOOOOOOOOOOXXXXXXXXXXXX....",
"........XXXXXXXXOOOOOOOOOOOOOOOOOOOOOOOOOOOOOOOOXXXXXXXXXXXX....",
"++++........XXXXXXXXXXXX                    XXXXXXXXXXXX........",
"++++........XXXXXXXXXXXX                    XXXXXXXXXXXX........",
"++++........XXXXXXXXXXXX                    XXXXXXXXXXXX........",
"++++........XXXXXXXXXXXX                    XXXXXXXXXXXX........"
};
