/* XPM */
static char *result[] = {
/* columns rows colors chars-per-pixel */
"64 32 3 1 ",
"  c black",
". c #E02020",
"X c #F8F8F8",
/* pixels */
"................................................................",
"...X........................................................X...",
"....XXXXXXXXXXXXXXXXXXXXXXXXXXXXXXXXXXXXXXXXXXXXXXXXXXXXXXXX....",
".X.X                                                        X.X.",
"..X                                                          X..",
"..X                                                          X..",
"..X                                                          X..",
"..X                                                          X..",
"..X                                                          X..",
"..X                                                          X..",
"..X                                                          X..",
"..X                                                          X..",
"..X                                                          X..",
"..X                                                          X..",
"..X                                                          X..",
"..X                                                          X..",
"..X                                                          X..",
"..X                                                          X..",
"..X                                                          X..",
"..X                                                          X..",
"..X                                                          X..",
"..X                                                          X..",
"..X                                                          X..",
"..X                                                          X..",
"..X                                                          X..",
"..X                                                          X..",
"..X                                                          X..",
"..X                                                          X..",
".X.X                                                        X.X.",
"....XXXXXXXXXXXXXXXXXXXXXXXXXXXXXXXXXXXXXXXXXXXXXXXXXXXXXXXX....",
"...X........................................................X...",
"................................................................"
};
