/* XPM */
static char *result[] = {
/* columns rows colors chars-per-pixel */
"24 8 3 1 ",
"  c black",
". c #E02020",
"X c #F8F8F8",
/* pixels */
"........................",
"..XXXXXXXXXXXXXXXXXXXX..",
".XX                  XX.",
".X                    X.",
".X                    X.",
".XX                  XX.",
"..XXXXXXXXXXXXXXXXXXXX..",
"........................"
};
