/* XPM */
static char *result[] = {
/* columns rows colors chars-per-pixel */
"64 32 3 1 ",
"  c black",
". c #E02020",
"X c #F8F8F8",
/* pixels */
"................................................................",
"................................................................",
"................................................................",
"......XXXXXXXXXXXXXXXXXXXXXXXXXXXXXXXXXXXXXXXXXXXXXXXXXXXX......",
"......XXXXXXXXXXXXXXXXXXXXXXXXXXXXXXXXXXXXXXXXXXXXXXXXXXXX......",
"......XXXXXXXXXXXXXXXXXXXXXXXXXXXXXXXXXXXXXXXXXXXXXXXXXXXX......",
"...XXXXXX                                              XXXXXX...",
"...XXXXXX                                              XXXXXX...",
"...XXXXXX                                              XXXXXX...",
"...XXX                                                    XXX...",
"...XXX                                                    XXX...",
"...XXX                                                    XXX...",
"...XXX                                                    XXX...",
"...XXX                                                    XXX...",
"...XXX                                                    XXX...",
"...XXX                                                    XXX...",
"...XXX                                                    XXX...",
"...XXX                                                    XXX...",
"...XXX                                                    XXX...",
"...XXX                                                    XXX...",
"...XXX                                                    XXX...",
"...XXX                                                    XXX...",
"...XXX                                                    XXX...",
"...XXXXXX                                              XXXXXX...",
"...XXXXXX                                              XXXXXX...",
"...XXXXXX                                              XXXXXX...",
"......XXXXXXXXXXXXXXXXXXXXXXXXXXXXXXXXXXXXXXXXXXXXXXXXXXXX......",
"......XXXXXXXXXXXXXXXXXXXXXXXXXXXXXXXXXXXXXXXXXXXXXXXXXXXX......",
"......XXXXXXXXXXXXXXXXXXXXXXXXXXXXXXXXXXXXXXXXXXXXXXXXXXXX......",
"................................................................",
"................................................................",
"................................................................"
};
