/* XPM */
static char *exit1649966957[] = {
/* columns rows colors chars-per-pixel */
"64 64 4 1 ",
"  c black",
". c #183C5C",
"X c #008088",
"o c #00E8D8",
/* pixels */
"oooooooooooooooooooooooooooooooooooooooooooooooooooooooooooooooo",
"oooooooooooooooooooooooooooooooooooooooooooooooooooooooooooooooo",
"oooooooooooooooooooooooooooooooooooooooooooooooooooooooooooooooo",
"oooooooooooooooooooooooooooooooooooooooooooooooooooooooooooooooo",
"oooo                                                        oooo",
"oooo                                                        oooo",
"oooo                                                        oooo",
"oooo                                                        oooo",
"ooooXXXXXXXX                                                oooo",
"ooooXXXXXXXX                                                oooo",
"ooooXXXXXXXX                                                oooo",
"ooooXXXXXXXX                                                oooo",
"ooooXXXXXXXX....                                            oooo",
"ooooXXXXXXXX....                                            oooo",
"ooooXXXXXXXX....                                            oooo",
"ooooXXXXXXXX....                                            oooo",
"ooooXXXXXXXX....XXXXXXXXXXXX                                oooo",
"ooooXXXXXXXX....XXXXXXXXXXXX                                oooo",
"ooooXXXXXXXX....XXXXXXXXXXXX                                oooo",
"ooooXXXXXXXX....XXXXXXXXXXXX                                oooo",
"ooooXXXXXXXX....XXXXXXXXXXXX....                            oooo",
"ooooXXXXXXXX....XXXXXXXXXXXX....                            oooo",
"ooooXXXXXXXX....XXXXXXXXXXXX....                            oooo",
"ooooXXXXXXXX....XXXXXXXXXXXX....                            oooo",
"ooooXXXXXXXX....XXXXXXXXXXXX....XXXXXXXXXXXX                oooo",
"ooooXXXXXXXX....XXXXXXXXXXXX....XXXXXXXXXXXX                oooo",
"ooooXXXXXXXX....XXXXXXXXXXXX....XXXXXXXXXXXX                oooo",
"ooooXXXXXXXX....XXXXXXXXXXXX....XXXXXXXXXXXX                oooo",
"ooooXXXXXXXX....XXXXXXXXXXXX....XXXXXXXXXXXX....            oooo",
"ooooXXXXXXXX....XXXXXXXXXXXX....XXXXXXXXXXXX....            oooo",
"ooooXXXXXXXX....XXXXXXXXXXXX....XXXXXXXXXXXX....            oooo",
"ooooXXXXXXXX....XXXXXXXXXXXX....XXXXXXXXXXXX....            oooo",
"ooooXXXXXXXX....XXXXXXXXXXXX....XXXXXXXXXXXX....XXXXXXXXXXXXoooo",
"ooooXXXXXXXX....XXXXXXXXXXXX....XXXXXXXXXXXX....XXXXXXXXXXXXoooo",
"ooooXXXXXXXX....XXXXXXXXXXXX....XXXXXXXXXXXX....XXXXXXXXXXXXoooo",
"ooooXXXXXXXX....XXXXXXXXXXXX....XXXXXXXXXXXX....XXXXXXXXXXXXoooo",
"ooooXXXXXXXX....XXXXXXXXXXXX....XXXXXXXXXXXX....XXXXXXXXXXXXoooo",
"ooooXXXXXXXX....XXXXXXXXXXXX....XXXXXXXXXXXX....XXXXXXXXXXXXoooo",
"ooooXXXXXXXX....XXXXXXXXXXXX....XXXXXXXXXXXX....XXXXXXXXXXXXoooo",
"ooooXXXXXXXX....XXXXXXXXXXXX....XXXXXXXXXXXX....XXXXXXXXXXXXoooo",
"ooooXXXXXXXX....XXXXXXXXXXXX....XXXXXXXXXXXX....XXXXXXXXXXXXoooo",
"ooooXXXXXXXX....XXXXXXXXXXXX....XXXXXXXXXXXX....XXXXXXXXXXXXoooo",
"ooooXXXXXXXX....XXXXXXXXXXXX....XXXXXXXXXXXX....XXXXXXXXXXXXoooo",
"ooooXXXXXXXX....XXXXXXXXXXXX....XXXXXXXXXXXX....XXXXXXXXXXXXoooo",
"ooooXXXXXXXX....XXXXXXXXXXXX....XXXXXXXXXXXX....XXXXXXXXXXXXoooo",
"ooooXXXXXXXX....XXXXXXXXXXXX....XXXXXXXXXXXX....XXXXXXXXXXXXoooo",
"ooooXXXXXXXX....XXXXXXXXXXXX....XXXXXXXXXXXX....XXXXXXXXXXXXoooo",
"ooooXXXXXXXX....XXXXXXXXXXXX....XXXXXXXXXXXX....XXXXXXXXXXXXoooo",
"ooooXXXXXXXX....XXXXXXXXXXXX....XXXXXXXXXXXX....XXXXXXXXXXXXoooo",
"ooooXXXXXXXX....XXXXXXXXXXXX....XXXXXXXXXXXX....XXXXXXXXXXXXoooo",
"ooooXXXXXXXX....XXXXXXXXXXXX....XXXXXXXXXXXX....XXXXXXXXXXXXoooo",
"ooooXXXXXXXX....XXXXXXXXXXXX....XXXXXXXXXXXX....XXXXXXXXXXXXoooo",
"ooooXXXXXXXX....XXXXXXXXXXXX....XXXXXXXXXXXX....XXXXXXXXXXXXoooo",
"ooooXXXXXXXX....XXXXXXXXXXXX....XXXXXXXXXXXX....XXXXXXXXXXXXoooo",
"ooooXXXXXXXX....XXXXXXXXXXXX....XXXXXXXXXXXX....XXXXXXXXXXXXoooo",
"ooooXXXXXXXX....XXXXXXXXXXXX....XXXXXXXXXXXX....XXXXXXXXXXXXoooo",
"ooooXXXXXXXX....XXXXXXXXXXXX....XXXXXXXXXXXX....XXXXXXXXXXXXoooo",
"ooooXXXXXXXX....XXXXXXXXXXXX....XXXXXXXXXXXX....XXXXXXXXXXXXoooo",
"ooooXXXXXXXX....XXXXXXXXXXXX....XXXXXXXXXXXX....XXXXXXXXXXXXoooo",
"ooooXXXXXXXX....XXXXXXXXXXXX....XXXXXXXXXXXX....XXXXXXXXXXXXoooo",
"oooooooooooooooooooooooooooooooooooooooooooooooooooooooooooooooo",
"oooooooooooooooooooooooooooooooooooooooooooooooooooooooooooooooo",
"oooooooooooooooooooooooooooooooooooooooooooooooooooooooooooooooo",
"oooooooooooooooooooooooooooooooooooooooooooooooooooooooooooooooo"
};
