/* XPM */
static char *floor1649966343[] = {
/* columns rows colors chars-per-pixel */
"64 64 3 1 ",
"  c black",
". c #008088",
"X c #00E8D8",
/* pixels */
"....XXXXXXXXXXXXXXXXXXXXXXXXXXXXXXXXXXXXXXXXXXXXXXXXXXXXXXXX....",
"....XXXXXXXXXXXXXXXXXXXXXXXXXXXXXXXXXXXXXXXXXXXXXXXXXXXXXXXX....",
"....XXXXXXXXXXXXXXXXXXXXXXXXXXXXXXXXXXXXXXXXXXXXXXXXXXXXXXXX....",
"....XXXXXXXXXXXXXXXXXXXXXXXXXXXXXXXXXXXXXXXXXXXXXXXXXXXXXXXX....",
"XXXX........................................................    ",
"XXXX........................................................    ",
"XXXX........................................................    ",
"XXXX........................................................    ",
"XXXX........................................................    ",
"XXXX........................................................    ",
"XXXX........................................................    ",
"XXXX........................................................    ",
"XXXX........................................................    ",
"XXXX........................................................    ",
"XXXX........................................................    ",
"XXXX........................................................    ",
"XXXX........................................................    ",
"XXXX........................................................    ",
"XXXX........................................................    ",
"XXXX........................................................    ",
"XXXX........................................................    ",
"XXXX........................................................    ",
"XXXX........................................................    ",
"XXXX........................................................    ",
"XXXX........................................................    ",
"XXXX........................................................    ",
"XXXX........................................................    ",
"XXXX........................................................    ",
"XXXX........................................................    ",
"XXXX........................................................    ",
"XXXX........................................................    ",
"XXXX........................................................    ",
"XXXX........................................................    ",
"XXXX........................................................    ",
"XXXX........................................................    ",
"XXXX........................................................    ",
"XXXX........................................................    ",
"XXXX........................................................    ",
"XXXX........................................................    ",
"XXXX........................................................    ",
"XXXX........................................................    ",
"XXXX........................................................    ",
"XXXX........................................................    ",
"XXXX........................................................    ",
"XXXX........................................................    ",
"XXXX........................................................    ",
"XXXX........................................................    ",
"XXXX........................................................    ",
"XXXX........................................................    ",
"XXXX........................................................    ",
"XXXX........................................................    ",
"XXXX........................................................    ",
"XXXX........................................................    ",
"XXXX........................................................    ",
"XXXX........................................................    ",
"XXXX........................................................    ",
"XXXX........................................................    ",
"XXXX........................................................    ",
"XXXX........................................................    ",
"XXXX........................................................    ",
"....                                                        ....",
"....                                                        ....",
"....                                                        ....",
"....                                                        ...."
};
