/* XPM */
static char *wall1649966740[] = {
/* columns rows colors chars-per-pixel */
"64 64 3 1 ",
"  c #183C5C",
". c #008088",
"X c #00E8D8",
/* pixels */
"....XXXXXXXXXXXXXXXXXXXXXXXXXXXXXXXXXXXXXXXXXXXXXXXXXXXXXXXX    ",
"....XXXXXXXXXXXXXXXXXXXXXXXXXXXXXXXXXXXXXXXXXXXXXXXXXXXXXXXX    ",
"....XXXXXXXXXXXXXXXXXXXXXXXXXXXXXXXXXXXXXXXXXXXXXXXXXXXXXXXX    ",
"....XXXXXXXXXXXXXXXXXXXXXXXXXXXXXXXXXXXXXXXXXXXXXXXXXXXXXXXX    ",
"XXXX....XXXXXXXXXXXXXXXXXXXXXXXXXXXXXXXXXXXXXXXXXXXXXXXX        ",
"XXXX....XXXXXXXXXXXXXXXXXXXXXXXXXXXXXXXXXXXXXXXXXXXXXXXX        ",
"XXXX....XXXXXXXXXXXXXXXXXXXXXXXXXXXXXXXXXXXXXXXXXXXXXXXX        ",
"XXXX....XXXXXXXXXXXXXXXXXXXXXXXXXXXXXXXXXXXXXXXXXXXXXXXX        ",
"XXXXXXXX....XXXXXXXXXXXXXXXXXXXXXXXXXXXXXXXXXXXXXXXX            ",
"XXXXXXXX....XXXXXXXXXXXXXXXXXXXXXXXXXXXXXXXXXXXXXXXX            ",
"XXXXXXXX....XXXXXXXXXXXXXXXXXXXXXXXXXXXXXXXXXXXXXXXX            ",
"XXXXXXXX....XXXXXXXXXXXXXXXXXXXXXXXXXXXXXXXXXXXXXXXX            ",
"XXXXXXXXXXXX....XXXXXXXXXXXXXXXXXXXXXXXXXXXXXXXX                ",
"XXXXXXXXXXXX....XXXXXXXXXXXXXXXXXXXXXXXXXXXXXXXX                ",
"XXXXXXXXXXXX....XXXXXXXXXXXXXXXXXXXXXXXXXXXXXXXX                ",
"XXXXXXXXXXXX....XXXXXXXXXXXXXXXXXXXXXXXXXXXXXXXX                ",
"XXXXXXXXXXXXXXXX....XXXXXXXXXXXXXXXXXXXXXXXX                    ",
"XXXXXXXXXXXXXXXX....XXXXXXXXXXXXXXXXXXXXXXXX                    ",
"XXXXXXXXXXXXXXXX....XXXXXXXXXXXXXXXXXXXXXXXX                    ",
"XXXXXXXXXXXXXXXX....XXXXXXXXXXXXXXXXXXXXXXXX                    ",
"XXXXXXXXXXXXXXXXXXXX........................                    ",
"XXXXXXXXXXXXXXXXXXXX........................                    ",
"XXXXXXXXXXXXXXXXXXXX........................                    ",
"XXXXXXXXXXXXXXXXXXXX........................                    ",
"XXXXXXXXXXXXXXXXXXXX........................                    ",
"XXXXXXXXXXXXXXXXXXXX........................                    ",
"XXXXXXXXXXXXXXXXXXXX........................                    ",
"XXXXXXXXXXXXXXXXXXXX........................                    ",
"XXXXXXXXXXXXXXXXXXXX........................                    ",
"XXXXXXXXXXXXXXXXXXXX........................                    ",
"XXXXXXXXXXXXXXXXXXXX........................                    ",
"XXXXXXXXXXXXXXXXXXXX........................                    ",
"XXXXXXXXXXXXXXXXXXXX........................                    ",
"XXXXXXXXXXXXXXXXXXXX........................                    ",
"XXXXXXXXXXXXXXXXXXXX........................                    ",
"XXXXXXXXXXXXXXXXXXXX........................                    ",
"XXXXXXXXXXXXXXXXXXXX........................                    ",
"XXXXXXXXXXXXXXXXXXXX........................                    ",
"XXXXXXXXXXXXXXXXXXXX........................                    ",
"XXXXXXXXXXXXXXXXXXXX........................                    ",
"XXXXXXXXXXXXXXXXXXXX........................                    ",
"XXXXXXXXXXXXXXXXXXXX........................                    ",
"XXXXXXXXXXXXXXXXXXXX........................                    ",
"XXXXXXXXXXXXXXXXXXXX........................                    ",
"XXXXXXXXXXXXXXXXXXXX                        ....                ",
"XXXXXXXXXXXXXXXXXXXX                        ....                ",
"XXXXXXXXXXXXXXXXXXXX                        ....                ",
"XXXXXXXXXXXXXXXXXXXX                        ....                ",
"XXXXXXXXXXXXXXXX                                ....            ",
"XXXXXXXXXXXXXXXX                                ....            ",
"XXXXXXXXXXXXXXXX                                ....            ",
"XXXXXXXXXXXXXXXX                                ....            ",
"XXXXXXXXXXXX                                        ....        ",
"XXXXXXXXXXXX                                        ....        ",
"XXXXXXXXXXXX                                        ....        ",
"XXXXXXXXXXXX                                        ....        ",
"XXXXXXXX                                                ....    ",
"XXXXXXXX                                                ....    ",
"XXXXXXXX                                                ....    ",
"XXXXXXXX                                                ....    ",
"XXXX                                                        ....",
"XXXX                                                        ....",
"XXXX                                                        ....",
"XXXX                                                        ...."
};
